<svg width="55" height="14" viewBox="0 0 55 14" fill="none" xmlns="http://www.w3.org/2000/svg">
<path d="M9.072 12.776V10.058L3.384 8.564L9.072 7.034V4.298L0.684 7.124V9.986L9.072 12.776ZM54.3601 14V9.104H50.2381V10.832H41.7601C41.7601 10.454 42.1201 9.734 45.2881 9.158L48.9601 8.546C53.3521 7.826 54.1261 6.548 54.1261 4.532V4.496C54.1261 2.372 52.8481 0.373999 46.5481 0.373999H45.8281C38.8981 0.373999 38.2501 3.668 38.2501 5.198V5.342H42.6241C42.6781 4.676 42.9661 3.452 46.3321 3.452C49.2841 3.452 49.6981 3.938 49.6981 4.46C49.6981 4.874 49.5361 5.234 47.7181 5.576L44.5861 6.224C38.3761 7.52 38.0161 10.508 38.0161 12.488V14H54.3601Z" fill="white"/>
</svg>
