<svg width="14" height="142" viewBox="0 0 14 142" fill="none" xmlns="http://www.w3.org/2000/svg">
<path d="M1.552 133.009L0.399999 133.009L0.399999 141.649L13 141.649L13 140.317L7.654 140.317L7.654 133.801L6.502 133.801L6.502 140.317L1.552 140.317L1.552 133.009ZM13.108 125.183C13.108 121.961 11.236 120.017 7.618 120.017L0.399998 120.017L0.399998 121.313L7.564 121.313C10.552 121.313 11.92 122.717 11.92 125.183C11.92 127.631 10.552 129.035 7.564 129.035L0.399998 129.035L0.399998 130.367L7.618 130.367C11.236 130.367 13.108 128.405 13.108 125.183ZM11.848 114.671L7.168 114.671L7.168 108.155L6.034 108.155L6.034 114.671L1.552 114.671L1.552 107.363L0.399997 107.363L0.399998 116.003L13 116.003L13 107.093L11.848 107.093L11.848 114.671ZM13 103.962L13 95.5737L11.848 95.5737L11.848 102.63L0.399997 102.63L0.399997 103.962L13 103.962ZM13.108 83.1791C13.108 81.3251 12.478 79.6691 11.254 78.5531L10.408 79.3991C11.47 80.4251 11.92 81.6851 11.92 83.1251C11.92 86.1671 9.688 88.4531 6.7 88.4531C3.712 88.4531 1.48 86.1671 1.48 83.1251C1.48 81.6851 1.93 80.4251 2.974 79.3991L2.128 78.5531C0.903996 79.6691 0.291997 81.3251 0.291997 83.1611C0.291997 86.9591 3.01 89.7671 6.7 89.7671C10.39 89.7671 13.108 86.9591 13.108 83.1791ZM13 66.616L13 65.212L0.399996 70.972L0.399996 72.286L13 78.046L13 76.66L9.634 75.148L9.634 68.128L13 66.616ZM8.554 74.662L1.786 71.638L8.554 68.614L8.554 74.662ZM0.399995 58.4117L0.399996 63.1277L13 63.1277L13 61.7957L9.022 61.7957L9.022 58.4117C9.022 55.2077 7.402 53.2637 4.72 53.2637C2.02 53.2637 0.399995 55.2077 0.399995 58.4117ZM7.852 58.4477L7.852 61.7957L1.552 61.7957L1.552 58.4477C1.552 55.9277 2.704 54.5957 4.72 54.5957C6.7 54.5957 7.852 55.9277 7.852 58.4477ZM13 41.6024L13 40.1984L0.399995 45.9584L0.399995 47.2724L13 53.0324L13 51.6464L9.634 50.1344L9.634 43.1144L13 41.6024ZM8.554 49.6484L1.786 46.6244L8.554 43.6004L8.554 49.6484ZM13.108 32.8178C13.108 30.9638 12.478 29.3078 11.254 28.1918L10.408 29.0378C11.47 30.0638 11.92 31.3238 11.92 32.7638C11.92 35.8058 9.688 38.0918 6.69999 38.0918C3.71199 38.0918 1.47999 35.8058 1.47999 32.7638C1.47999 31.3238 1.92999 30.0638 2.97399 29.0378L2.12799 28.1918C0.903994 29.3078 0.291994 30.9638 0.291995 32.7998C0.291995 36.5978 3.01 39.4058 6.69999 39.4058C10.39 39.4058 13.108 36.5978 13.108 32.8178ZM13 25.3523L13 24.0203L0.399994 24.0203L0.399994 25.3523L13 25.3523ZM13 17.4727L13 16.1407L1.55199 16.1407L1.55199 11.7127L0.399993 11.7127L0.399994 21.9007L1.55199 21.9007L1.55199 17.4727L13 17.4727ZM0.399993 0.312609L0.399993 1.64461L7.47399 5.96461L0.399993 10.2846L0.399993 11.7066L8.64399 6.66661L13 6.66661L13 5.35261L8.64399 5.35261L0.399993 0.312609Z" fill="#3F3E44"/>
</svg>
