<svg width="70" height="11" viewBox="0 0 70 11" fill="none" xmlns="http://www.w3.org/2000/svg">
<path d="M5.436 4.596C5.964 4.772 6.368 5.036 6.648 5.388C6.936 5.74 7.08 6.164 7.08 6.66C7.08 7.148 6.948 7.576 6.684 7.944C6.42 8.304 6.04 8.584 5.544 8.784C5.056 8.976 4.48 9.072 3.816 9.072C2.808 9.072 2.016 8.856 1.44 8.424C0.864 7.992 0.576 7.404 0.576 6.66C0.576 6.156 0.712 5.732 0.984 5.388C1.264 5.036 1.668 4.772 2.196 4.596C1.764 4.428 1.436 4.188 1.212 3.876C0.988 3.556 0.876 3.18 0.876 2.748C0.876 2.068 1.14 1.528 1.668 1.128C2.204 0.728 2.92 0.528 3.816 0.528C4.408 0.528 4.924 0.62 5.364 0.804C5.812 0.98 6.16 1.236 6.408 1.572C6.656 1.908 6.78 2.3 6.78 2.748C6.78 3.18 6.664 3.556 6.432 3.876C6.2 4.188 5.868 4.428 5.436 4.596ZM1.74 2.772C1.74 3.236 1.924 3.604 2.292 3.876C2.66 4.148 3.168 4.284 3.816 4.284C4.464 4.284 4.972 4.148 5.34 3.876C5.716 3.604 5.904 3.24 5.904 2.784C5.904 2.312 5.712 1.94 5.328 1.668C4.952 1.396 4.448 1.26 3.816 1.26C3.176 1.26 2.668 1.396 2.292 1.668C1.924 1.94 1.74 2.308 1.74 2.772ZM3.816 8.34C4.56 8.34 5.14 8.188 5.556 7.884C5.98 7.58 6.192 7.168 6.192 6.648C6.192 6.128 5.98 5.72 5.556 5.424C5.14 5.12 4.56 4.968 3.816 4.968C3.08 4.968 2.5 5.12 2.076 5.424C1.66 5.72 1.452 6.128 1.452 6.648C1.452 7.176 1.66 7.592 2.076 7.896C2.492 8.192 3.072 8.34 3.816 8.34ZM9.65353 7.752C9.83753 7.752 9.98953 7.816 10.1095 7.944C10.2295 8.064 10.2895 8.216 10.2895 8.4C10.2895 8.496 10.2735 8.6 10.2415 8.712C10.2175 8.824 10.1775 8.952 10.1215 9.096L9.61753 10.752H9.04153L9.44953 9.012C9.32153 8.972 9.21753 8.9 9.13753 8.796C9.05753 8.684 9.01753 8.552 9.01753 8.4C9.01753 8.216 9.07753 8.064 9.19753 7.944C9.31753 7.816 9.46953 7.752 9.65353 7.752ZM17.0657 4.596C17.5937 4.772 17.9977 5.036 18.2777 5.388C18.5657 5.74 18.7097 6.164 18.7097 6.66C18.7097 7.148 18.5777 7.576 18.3137 7.944C18.0497 8.304 17.6697 8.584 17.1737 8.784C16.6857 8.976 16.1097 9.072 15.4457 9.072C14.4377 9.072 13.6457 8.856 13.0697 8.424C12.4937 7.992 12.2057 7.404 12.2057 6.66C12.2057 6.156 12.3417 5.732 12.6137 5.388C12.8937 5.036 13.2977 4.772 13.8257 4.596C13.3937 4.428 13.0657 4.188 12.8417 3.876C12.6177 3.556 12.5057 3.18 12.5057 2.748C12.5057 2.068 12.7697 1.528 13.2977 1.128C13.8337 0.728 14.5497 0.528 15.4457 0.528C16.0377 0.528 16.5537 0.62 16.9937 0.804C17.4417 0.98 17.7897 1.236 18.0377 1.572C18.2857 1.908 18.4097 2.3 18.4097 2.748C18.4097 3.18 18.2937 3.556 18.0617 3.876C17.8297 4.188 17.4977 4.428 17.0657 4.596ZM13.3697 2.772C13.3697 3.236 13.5537 3.604 13.9217 3.876C14.2897 4.148 14.7977 4.284 15.4457 4.284C16.0937 4.284 16.6017 4.148 16.9697 3.876C17.3457 3.604 17.5337 3.24 17.5337 2.784C17.5337 2.312 17.3417 1.94 16.9577 1.668C16.5817 1.396 16.0777 1.26 15.4457 1.26C14.8057 1.26 14.2977 1.396 13.9217 1.668C13.5537 1.94 13.3697 2.308 13.3697 2.772ZM15.4457 8.34C16.1897 8.34 16.7697 8.188 17.1857 7.884C17.6097 7.58 17.8217 7.168 17.8217 6.648C17.8217 6.128 17.6097 5.72 17.1857 5.424C16.7697 5.12 16.1897 4.968 15.4457 4.968C14.7097 4.968 14.1297 5.12 13.7057 5.424C13.2897 5.72 13.0817 6.128 13.0817 6.648C13.0817 7.176 13.2897 7.592 13.7057 7.896C14.1217 8.192 14.7017 8.34 15.4457 8.34ZM23.854 9.072C23.206 9.072 22.626 8.9 22.114 8.556C21.61 8.212 21.214 7.72 20.926 7.08C20.646 6.432 20.506 5.672 20.506 4.8C20.506 3.928 20.646 3.172 20.926 2.532C21.214 1.884 21.61 1.388 22.114 1.044C22.626 0.7 23.206 0.528 23.854 0.528C24.502 0.528 25.078 0.7 25.582 1.044C26.094 1.388 26.494 1.884 26.782 2.532C27.07 3.172 27.214 3.928 27.214 4.8C27.214 5.672 27.07 6.432 26.782 7.08C26.494 7.72 26.094 8.212 25.582 8.556C25.078 8.9 24.502 9.072 23.854 9.072ZM23.854 8.28C24.342 8.28 24.77 8.144 25.138 7.872C25.514 7.6 25.806 7.204 26.014 6.684C26.222 6.164 26.326 5.536 26.326 4.8C26.326 4.064 26.222 3.436 26.014 2.916C25.806 2.396 25.514 2 25.138 1.728C24.77 1.456 24.342 1.32 23.854 1.32C23.366 1.32 22.934 1.456 22.558 1.728C22.19 2 21.902 2.396 21.694 2.916C21.486 3.436 21.382 4.064 21.382 4.8C21.382 5.536 21.486 6.164 21.694 6.684C21.902 7.204 22.19 7.6 22.558 7.872C22.934 8.144 23.366 8.28 23.854 8.28ZM32.3993 9.072C31.7513 9.072 31.1713 8.9 30.6593 8.556C30.1553 8.212 29.7593 7.72 29.4713 7.08C29.1913 6.432 29.0513 5.672 29.0513 4.8C29.0513 3.928 29.1913 3.172 29.4713 2.532C29.7593 1.884 30.1553 1.388 30.6593 1.044C31.1713 0.7 31.7513 0.528 32.3993 0.528C33.0473 0.528 33.6233 0.7 34.1273 1.044C34.6393 1.388 35.0393 1.884 35.3273 2.532C35.6153 3.172 35.7593 3.928 35.7593 4.8C35.7593 5.672 35.6153 6.432 35.3273 7.08C35.0393 7.72 34.6393 8.212 34.1273 8.556C33.6233 8.9 33.0473 9.072 32.3993 9.072ZM32.3993 8.28C32.8873 8.28 33.3153 8.144 33.6833 7.872C34.0593 7.6 34.3513 7.204 34.5593 6.684C34.7673 6.164 34.8713 5.536 34.8713 4.8C34.8713 4.064 34.7673 3.436 34.5593 2.916C34.3513 2.396 34.0593 2 33.6833 1.728C33.3153 1.456 32.8873 1.32 32.3993 1.32C31.9113 1.32 31.4793 1.456 31.1033 1.728C30.7353 2 30.4473 2.396 30.2393 2.916C30.0313 3.436 29.9273 4.064 29.9273 4.8C29.9273 5.536 30.0313 6.164 30.2393 6.684C30.4473 7.204 30.7353 7.6 31.1033 7.872C31.4793 8.144 31.9113 8.28 32.3993 8.28ZM47.8173 9L45.8973 6.3C45.6813 6.324 45.4573 6.336 45.2253 6.336H42.9693V9H42.0813V0.599999H45.2253C46.2973 0.599999 47.1373 0.855999 47.7453 1.368C48.3533 1.88 48.6573 2.584 48.6573 3.48C48.6573 4.136 48.4893 4.692 48.1533 5.148C47.8253 5.596 47.3533 5.92 46.7373 6.12L48.7893 9H47.8173ZM45.2013 5.58C46.0333 5.58 46.6693 5.396 47.1093 5.028C47.5493 4.66 47.7693 4.144 47.7693 3.48C47.7693 2.8 47.5493 2.28 47.1093 1.92C46.6693 1.552 46.0333 1.368 45.2013 1.368H42.9693V5.58H45.2013ZM54.4972 0.599999C55.5692 0.599999 56.4092 0.855999 57.0172 1.368C57.6252 1.88 57.9292 2.584 57.9292 3.48C57.9292 4.376 57.6252 5.08 57.0172 5.592C56.4092 6.096 55.5692 6.348 54.4972 6.348H52.2412V9H51.3532V0.599999H54.4972ZM54.4732 5.568C55.3052 5.568 55.9412 5.388 56.3812 5.028C56.8212 4.66 57.0412 4.144 57.0412 3.48C57.0412 2.8 56.8212 2.28 56.3812 1.92C55.9412 1.552 55.3052 1.368 54.4732 1.368H52.2412V5.568H54.4732ZM69.1732 0.599999V9H68.3212V2.28L65.0212 7.932H64.6012L61.3012 2.316V9H60.4492V0.599999H61.1812L64.8292 6.828L68.4412 0.599999H69.1732Z" fill="white"/>
</svg>
