<svg width="16" height="79" viewBox="0 0 16 79" fill="none" xmlns="http://www.w3.org/2000/svg">
<path d="M13 74.332L13 73L1.552 73L1.552 68.572L0.399997 68.572L0.399998 78.76L1.552 78.76L1.552 74.332L13 74.332ZM13.108 61.1119C13.108 57.3319 10.39 54.5059 6.7 54.5059C3.01 54.5059 0.291997 57.3319 0.291997 61.1119C0.291997 64.9279 3.028 67.7359 6.7 67.7359C10.372 67.7359 13.108 64.9279 13.108 61.1119ZM11.92 61.1119C11.92 64.1539 9.706 66.4219 6.7 66.4219C3.694 66.4219 1.48 64.1539 1.48 61.1119C1.48 58.0879 3.694 55.8379 6.7 55.8379C9.706 55.8379 11.92 58.0879 11.92 61.1119ZM13 41.4583L8.68 44.5363C8.086 42.7003 6.7 41.6563 4.72 41.6563C2.02 41.6563 0.399996 43.6003 0.399996 46.8043L0.399996 51.5203L13 51.5203L13 50.1883L9.004 50.1883L9.004 46.8043C9.004 46.4443 8.986 46.1203 8.95 45.7963L13 42.9163L13 41.4583ZM7.87 46.8403L7.87 50.1883L1.552 50.1883L1.552 46.8403C1.552 44.3203 2.704 42.9883 4.72 42.9883C6.7 42.9883 7.87 44.3203 7.87 46.8403ZM13.288 26.4705C14.062 27.1365 14.44 27.9105 14.44 28.8645C14.44 29.7645 13.99 30.6465 12.982 31.6005C12.388 28.5405 9.922 26.3985 6.7 26.3985C3.01 26.3985 0.291996 29.2245 0.291996 33.0045C0.291996 36.8205 3.028 39.6285 6.7 39.6285C10.3 39.6285 13 36.9285 13.108 33.2385C14.836 31.5825 15.502 30.3585 15.502 28.8825C15.502 27.6585 14.998 26.5965 14.062 25.8225L13.288 26.4705ZM6.7 38.3145C3.712 38.3145 1.48 36.0465 1.48 33.0045C1.48 29.9805 3.712 27.7305 6.7 27.7305C9.688 27.7305 11.92 29.9805 11.92 33.0045C11.92 36.0465 9.688 38.3145 6.7 38.3145ZM13.108 18.3368C13.108 15.1148 11.236 13.1708 7.618 13.1708L0.399995 13.1708L0.399995 14.4668L7.564 14.4668C10.552 14.4668 11.92 15.8708 11.92 18.3368C11.92 20.7848 10.552 22.1888 7.564 22.1888L0.399995 22.1888L0.399995 23.5208L7.618 23.5208C11.236 23.5208 13.108 21.5588 13.108 18.3368ZM11.848 7.82498L7.168 7.82498L7.168 1.30898L6.03399 1.30898L6.03399 7.82498L1.55199 7.82498L1.55199 0.516984L0.399994 0.516984L0.399995 9.15698L13 9.15698L13 0.246983L11.848 0.246983L11.848 7.82498Z" fill="#3F3E44"/>
</svg>
