<svg width="71" height="10" viewBox="0 0 71 10" fill="none" xmlns="http://www.w3.org/2000/svg">
<path d="M7.764 6.792H6.084V9H5.22V6.792H0.48V6.168L4.932 0.599999H5.892L1.596 6.024H5.244V4.08H6.084V6.024H7.764V6.792ZM10.04 9.06C9.86397 9.06 9.71197 8.996 9.58397 8.868C9.46397 8.74 9.40397 8.584 9.40397 8.4C9.40397 8.216 9.46397 8.064 9.58397 7.944C9.71197 7.816 9.86397 7.752 10.04 7.752C10.216 7.752 10.368 7.816 10.496 7.944C10.624 8.064 10.688 8.216 10.688 8.4C10.688 8.584 10.624 8.74 10.496 8.868C10.368 8.996 10.216 9.06 10.04 9.06ZM14.7429 4.044C15.9589 4.044 16.8429 4.264 17.3949 4.704C17.9549 5.136 18.2349 5.744 18.2349 6.528C18.2349 7.016 18.1189 7.452 17.8869 7.836C17.6629 8.22 17.3229 8.524 16.8669 8.748C16.4109 8.964 15.8509 9.072 15.1869 9.072C14.5869 9.072 14.0149 8.976 13.4709 8.784C12.9349 8.584 12.5029 8.32 12.1749 7.992L12.5949 7.308C12.8749 7.596 13.2429 7.832 13.6989 8.016C14.1549 8.192 14.6469 8.28 15.1749 8.28C15.8709 8.28 16.4069 8.124 16.7829 7.812C17.1669 7.5 17.3589 7.084 17.3589 6.564C17.3589 5.988 17.1429 5.552 16.7109 5.256C16.2869 4.96 15.5669 4.812 14.5509 4.812H12.7629L13.1949 0.599999H17.7909V1.368H13.9509L13.6629 4.044H14.7429ZM27.8004 9.072C26.7124 9.072 25.8644 8.76 25.2564 8.136C24.6484 7.512 24.3444 6.604 24.3444 5.412V0.599999H25.2324V5.376C25.2324 6.352 25.4524 7.08 25.8924 7.56C26.3324 8.04 26.9684 8.28 27.8004 8.28C28.6404 8.28 29.2804 8.04 29.7204 7.56C30.1604 7.08 30.3804 6.352 30.3804 5.376V0.599999H31.2444V5.412C31.2444 6.604 30.9404 7.512 30.3324 8.136C29.7324 8.76 28.8884 9.072 27.8004 9.072ZM36.8363 9.072C36.2123 9.072 35.6123 8.972 35.0363 8.772C34.4683 8.572 34.0283 8.308 33.7163 7.98L34.0643 7.296C34.3683 7.6 34.7723 7.848 35.2763 8.04C35.7803 8.224 36.3003 8.316 36.8363 8.316C37.5883 8.316 38.1523 8.18 38.5283 7.908C38.9043 7.628 39.0923 7.268 39.0923 6.828C39.0923 6.492 38.9883 6.224 38.7803 6.024C38.5803 5.824 38.3323 5.672 38.0363 5.568C37.7403 5.456 37.3283 5.336 36.8003 5.208C36.1683 5.048 35.6643 4.896 35.2883 4.752C34.9123 4.6 34.5883 4.372 34.3163 4.068C34.0523 3.764 33.9203 3.352 33.9203 2.832C33.9203 2.408 34.0323 2.024 34.2563 1.68C34.4803 1.328 34.8243 1.048 35.2883 0.84C35.7523 0.632 36.3283 0.528 37.0163 0.528C37.4963 0.528 37.9643 0.596 38.4203 0.732C38.8843 0.86 39.2843 1.04 39.6203 1.272L39.3203 1.98C38.9683 1.748 38.5923 1.576 38.1923 1.464C37.7923 1.344 37.4003 1.284 37.0163 1.284C36.2803 1.284 35.7243 1.428 35.3483 1.716C34.9803 1.996 34.7963 2.36 34.7963 2.808C34.7963 3.144 34.8963 3.416 35.0963 3.624C35.3043 3.824 35.5603 3.98 35.8643 4.092C36.1763 4.196 36.5923 4.312 37.1123 4.44C37.7283 4.592 38.2243 4.744 38.6003 4.896C38.9843 5.04 39.3083 5.264 39.5723 5.568C39.8363 5.864 39.9683 6.268 39.9683 6.78C39.9683 7.204 39.8523 7.592 39.6203 7.944C39.3963 8.288 39.0483 8.564 38.5763 8.772C38.1043 8.972 37.5243 9.072 36.8363 9.072ZM52.1598 4.8H53.0118V8.004C52.6198 8.348 52.1558 8.612 51.6198 8.796C51.0838 8.98 50.5198 9.072 49.9278 9.072C49.0878 9.072 48.3318 8.888 47.6598 8.52C46.9878 8.152 46.4598 7.644 46.0758 6.996C45.6918 6.34 45.4998 5.608 45.4998 4.8C45.4998 3.992 45.6918 3.264 46.0758 2.616C46.4598 1.96 46.9878 1.448 47.6598 1.08C48.3318 0.712 49.0918 0.528 49.9398 0.528C50.5798 0.528 51.1678 0.632 51.7038 0.84C52.2398 1.04 52.6918 1.34 53.0598 1.74L52.5078 2.304C51.8438 1.648 50.9998 1.32 49.9758 1.32C49.2958 1.32 48.6798 1.472 48.1278 1.776C47.5838 2.072 47.1558 2.488 46.8438 3.024C46.5318 3.552 46.3758 4.144 46.3758 4.8C46.3758 5.456 46.5318 6.048 46.8438 6.576C47.1558 7.104 47.5838 7.52 48.1278 7.824C48.6718 8.128 49.2838 8.28 49.9638 8.28C50.8278 8.28 51.5598 8.064 52.1598 7.632V4.8ZM61.393 6.756H56.713L55.705 9H54.781L58.621 0.599999H59.497L63.337 9H62.401L61.393 6.756ZM61.069 6.036L59.053 1.524L57.037 6.036H61.069ZM65.3266 0.599999H66.2146V8.232H70.9186V9H65.3266V0.599999Z" fill="white"/>
</svg>
