<svg width="75" height="10" viewBox="0 0 75 10" fill="none" xmlns="http://www.w3.org/2000/svg">
<path d="M3.24 0.528C4.352 0.528 5.204 0.896 5.796 1.632C6.388 2.36 6.684 3.392 6.684 4.728C6.684 5.664 6.524 6.456 6.204 7.104C5.884 7.752 5.436 8.244 4.86 8.58C4.284 8.908 3.612 9.072 2.844 9.072C2.012 9.072 1.348 8.92 0.852 8.616L1.2 7.92C1.6 8.184 2.144 8.316 2.832 8.316C3.76 8.316 4.488 8.024 5.016 7.44C5.544 6.848 5.808 5.992 5.808 4.872C5.808 4.664 5.796 4.436 5.772 4.188C5.564 4.644 5.232 5 4.776 5.256C4.32 5.504 3.796 5.628 3.204 5.628C2.652 5.628 2.16 5.524 1.728 5.316C1.304 5.108 0.972 4.816 0.732 4.44C0.492 4.056 0.372 3.612 0.372 3.108C0.372 2.596 0.496 2.144 0.744 1.752C0.992 1.36 1.332 1.06 1.764 0.852C2.204 0.636 2.696 0.528 3.24 0.528ZM3.336 4.896C3.76 4.896 4.132 4.816 4.452 4.656C4.78 4.496 5.036 4.276 5.22 3.996C5.404 3.716 5.496 3.404 5.496 3.06C5.496 2.74 5.408 2.444 5.232 2.172C5.064 1.9 4.812 1.68 4.476 1.512C4.14 1.344 3.74 1.26 3.276 1.26C2.668 1.26 2.172 1.428 1.788 1.764C1.412 2.092 1.224 2.532 1.224 3.084C1.224 3.636 1.412 4.076 1.788 4.404C2.172 4.732 2.688 4.896 3.336 4.896ZM12.0165 3.972C12.5685 3.972 13.0565 4.076 13.4805 4.284C13.9125 4.492 14.2485 4.788 14.4885 5.172C14.7285 5.548 14.8485 5.988 14.8485 6.492C14.8485 7.004 14.7245 7.456 14.4765 7.848C14.2285 8.24 13.8845 8.544 13.4445 8.76C13.0125 8.968 12.5245 9.072 11.9805 9.072C10.8685 9.072 10.0165 8.708 9.4245 7.98C8.8325 7.244 8.5365 6.208 8.5365 4.872C8.5365 3.936 8.6965 3.144 9.0165 2.496C9.3365 1.848 9.7845 1.36 10.3605 1.032C10.9365 0.696 11.6085 0.528 12.3765 0.528C13.2085 0.528 13.8725 0.68 14.3685 0.983999L14.0205 1.68C13.6205 1.416 13.0765 1.284 12.3885 1.284C11.4605 1.284 10.7325 1.58 10.2045 2.172C9.6765 2.756 9.4125 3.608 9.4125 4.728C9.4125 4.928 9.4245 5.156 9.4485 5.412C9.6565 4.956 9.9885 4.604 10.4445 4.356C10.9005 4.1 11.4245 3.972 12.0165 3.972ZM11.9445 8.34C12.5525 8.34 13.0445 8.176 13.4205 7.848C13.8045 7.512 13.9965 7.068 13.9965 6.516C13.9965 5.964 13.8045 5.524 13.4205 5.196C13.0445 4.868 12.5325 4.704 11.8845 4.704C11.4605 4.704 11.0845 4.784 10.7565 4.944C10.4365 5.104 10.1845 5.324 10.0005 5.604C9.8165 5.884 9.7245 6.196 9.7245 6.54C9.7245 6.86 9.8085 7.156 9.9765 7.428C10.1525 7.7 10.4085 7.92 10.7445 8.088C11.0805 8.256 11.4805 8.34 11.9445 8.34ZM17.2142 9.06C17.0382 9.06 16.8862 8.996 16.7582 8.868C16.6382 8.74 16.5782 8.584 16.5782 8.4C16.5782 8.216 16.6382 8.064 16.7582 7.944C16.8862 7.816 17.0382 7.752 17.2142 7.752C17.3902 7.752 17.5422 7.816 17.6702 7.944C17.7982 8.064 17.8622 8.216 17.8622 8.4C17.8622 8.584 17.7982 8.74 17.6702 8.868C17.5422 8.996 17.3902 9.06 17.2142 9.06ZM22.6823 4.2C23.5623 4.248 24.2303 4.488 24.6863 4.92C25.1503 5.344 25.3823 5.9 25.3823 6.588C25.3823 7.068 25.2663 7.496 25.0343 7.872C24.8023 8.24 24.4583 8.532 24.0023 8.748C23.5463 8.964 22.9903 9.072 22.3343 9.072C21.7263 9.072 21.1503 8.976 20.6063 8.784C20.0703 8.584 19.6383 8.32 19.3103 7.992L19.7303 7.308C20.0103 7.596 20.3823 7.832 20.8463 8.016C21.3103 8.192 21.8063 8.28 22.3343 8.28C23.0223 8.28 23.5543 8.132 23.9303 7.836C24.3063 7.532 24.4943 7.116 24.4943 6.588C24.4943 6.068 24.3063 5.66 23.9303 5.364C23.5543 5.068 22.9863 4.92 22.2263 4.92H21.6263V4.284L23.9543 1.368H19.6583V0.599999H25.0583V1.212L22.6823 4.2ZM31.6844 0.599999H32.5724V8.232H37.2764V9H31.6844V0.599999ZM44.6428 4.668C45.1948 4.788 45.6188 5.028 45.9148 5.388C46.2188 5.74 46.3708 6.196 46.3708 6.756C46.3708 7.476 46.1028 8.032 45.5668 8.424C45.0388 8.808 44.2548 9 43.2148 9H39.3508V0.599999H42.9748C43.9108 0.599999 44.6348 0.787999 45.1468 1.164C45.6668 1.54 45.9268 2.072 45.9268 2.76C45.9268 3.224 45.8108 3.62 45.5788 3.948C45.3548 4.268 45.0428 4.508 44.6428 4.668ZM40.2388 1.332V4.38H42.9148C43.5948 4.38 44.1188 4.252 44.4868 3.996C44.8548 3.732 45.0388 3.352 45.0388 2.856C45.0388 2.36 44.8548 1.984 44.4868 1.728C44.1188 1.464 43.5948 1.332 42.9148 1.332H40.2388ZM43.2028 8.268C43.9548 8.268 44.5228 8.14 44.9068 7.884C45.2908 7.628 45.4828 7.228 45.4828 6.684C45.4828 5.636 44.7228 5.112 43.2028 5.112H40.2388V8.268H43.2028ZM49.8857 1.368V4.668H54.2297V5.436H49.8857V9H48.9977V0.599999H54.7577V1.368H49.8857ZM57.2034 5.424C56.9954 5.424 56.8154 5.348 56.6634 5.196C56.5114 5.044 56.4354 4.864 56.4354 4.656C56.4354 4.448 56.5114 4.268 56.6634 4.116C56.8154 3.964 56.9954 3.888 57.2034 3.888C57.4114 3.888 57.5914 3.964 57.7434 4.116C57.8954 4.268 57.9714 4.448 57.9714 4.656C57.9714 4.864 57.8954 5.044 57.7434 5.196C57.5914 5.348 57.4114 5.424 57.2034 5.424ZM61.4451 1.368V4.668H65.7891V5.436H61.4451V9H60.5571V0.599999H66.3171V1.368H61.4451ZM70.4414 1.368H67.4894V0.599999H74.2814V1.368H71.3294V9H70.4414V1.368Z" fill="white"/>
</svg>
