<svg width="78" height="10" viewBox="0 0 78 10" fill="none" xmlns="http://www.w3.org/2000/svg">
<path d="M3.48 4.2C4.36 4.248 5.028 4.488 5.484 4.92C5.948 5.344 6.18 5.9 6.18 6.588C6.18 7.068 6.064 7.496 5.832 7.872C5.6 8.24 5.256 8.532 4.8 8.748C4.344 8.964 3.788 9.072 3.132 9.072C2.524 9.072 1.948 8.976 1.404 8.784C0.868 8.584 0.436 8.32 0.108 7.992L0.528 7.308C0.808 7.596 1.18 7.832 1.644 8.016C2.108 8.192 2.604 8.28 3.132 8.28C3.82 8.28 4.352 8.132 4.728 7.836C5.104 7.532 5.292 7.116 5.292 6.588C5.292 6.068 5.104 5.66 4.728 5.364C4.352 5.068 3.784 4.92 3.024 4.92H2.424V4.284L4.752 1.368H0.456V0.599999H5.856V1.212L3.48 4.2ZM8.64544 9.06C8.46944 9.06 8.31744 8.996 8.18944 8.868C8.06944 8.74 8.00944 8.584 8.00944 8.4C8.00944 8.216 8.06944 8.064 8.18944 7.944C8.31744 7.816 8.46944 7.752 8.64544 7.752C8.82144 7.752 8.97344 7.816 9.10144 7.944C9.22944 8.064 9.29344 8.216 9.29344 8.4C9.29344 8.584 9.22944 8.74 9.10144 8.868C8.97344 8.996 8.82144 9.06 8.64544 9.06ZM16.9278 0.599999V1.212L13.4118 9H12.4758L15.9318 1.368H11.6118V2.94H10.7598V0.599999H16.9278ZM23.1508 0.599999H24.0388V9H23.1508V0.599999ZM36.0959 0.599999V9H35.2439V2.28L31.9439 7.932H31.5239L28.2239 2.316V9H27.3719V0.599999H28.1039L31.7519 6.828L35.3639 0.599999H36.0959ZM42.5768 0.599999C43.6488 0.599999 44.4888 0.855999 45.0968 1.368C45.7048 1.88 46.0088 2.584 46.0088 3.48C46.0088 4.376 45.7048 5.08 45.0968 5.592C44.4888 6.096 43.6488 6.348 42.5768 6.348H40.3208V9H39.4328V0.599999H42.5768ZM42.5528 5.568C43.3848 5.568 44.0208 5.388 44.4608 5.028C44.9008 4.66 45.1208 4.144 45.1208 3.48C45.1208 2.8 44.9008 2.28 44.4608 1.92C44.0208 1.552 43.3848 1.368 42.5528 1.368H40.3208V5.568H42.5528ZM58.3027 4.8H59.1547V8.004C58.7627 8.348 58.2987 8.612 57.7627 8.796C57.2267 8.98 56.6627 9.072 56.0707 9.072C55.2307 9.072 54.4747 8.888 53.8027 8.52C53.1307 8.152 52.6027 7.644 52.2187 6.996C51.8347 6.34 51.6427 5.608 51.6427 4.8C51.6427 3.992 51.8347 3.264 52.2187 2.616C52.6027 1.96 53.1307 1.448 53.8027 1.08C54.4747 0.712 55.2347 0.528 56.0827 0.528C56.7227 0.528 57.3107 0.632 57.8467 0.84C58.3827 1.04 58.8347 1.34 59.2027 1.74L58.6507 2.304C57.9867 1.648 57.1427 1.32 56.1187 1.32C55.4387 1.32 54.8227 1.472 54.2707 1.776C53.7267 2.072 53.2987 2.488 52.9867 3.024C52.6747 3.552 52.5187 4.144 52.5187 4.8C52.5187 5.456 52.6747 6.048 52.9867 6.576C53.2987 7.104 53.7267 7.52 54.2707 7.824C54.8147 8.128 55.4267 8.28 56.1067 8.28C56.9707 8.28 57.7027 8.064 58.3027 7.632V4.8ZM67.536 6.756H62.856L61.848 9H60.924L64.764 0.599999H65.64L69.48 9H68.544L67.536 6.756ZM67.212 6.036L65.196 1.524L63.18 6.036H67.212ZM71.4696 0.599999H72.3576V8.232H77.0616V9H71.4696V0.599999Z" fill="white"/>
</svg>
