<svg width="82" height="24" viewBox="0 0 82 24" fill="none" xmlns="http://www.w3.org/2000/svg">
<path d="M6.176 9.248L6.176 24L13.568 24L13.568 0.191999L7.744 0.191999C6.656 2.688 4.736 4.512 0.64 4.768L0.64 9.248H6.176ZM16.6513 0.191999L16.6513 10.464H24.2033V5.568L37.6433 5.568C37.4833 6.08 36.4593 7.008 32.9713 10.336C28.1393 14.912 26.7633 17.216 26.7633 20.992V24L35.3073 24V23.712C35.3073 19.904 35.5312 16.992 39.1793 12.16C41.6113 8.96 44.1073 6.4 45.0993 5.216V0.191999L16.6513 0.191999ZM57.449 0.191999L57.449 24L81.449 24V18.08L64.905 18.08V0.191999L57.449 0.191999Z" fill="white"/>
</svg>
