<svg width="224" height="26" viewBox="0 0 224 26" fill="none" xmlns="http://www.w3.org/2000/svg">
<path d="M6.176 10.248L6.176 25L13.568 25L13.568 1.192L7.744 1.192C6.656 3.688 4.736 5.512 0.64 5.768L0.64 10.248H6.176ZM31.7233 25.416C43.4673 25.416 45.9953 21.288 45.9953 17.288V17.064C45.9953 13.384 43.3393 11.752 41.4513 11.24C42.9873 10.888 45.2593 9.608 45.2593 7.112V6.92C45.2593 4.36 43.7873 0.775999 31.0513 0.775999L29.7073 0.775999C17.0673 0.775999 16.1073 6.44 16.1073 8.616V8.936L23.8833 8.936C23.9792 8.424 24.0433 6.216 30.4113 6.216C36.9393 6.216 37.4513 7.432 37.4513 8.296C37.4513 9.096 37.0033 9.864 34.3472 9.864L26.3153 9.864V15.4L34.7313 15.4C37.5473 15.4 38.0593 16.328 38.0593 17.256C38.0593 18.216 37.6753 19.912 30.8913 19.912C24.3313 19.912 23.9792 16.904 23.8833 16.296H16.0433V16.552C16.0433 18.984 17.2593 25.416 30.2193 25.416H31.7233ZM81.025 12.552C81.025 8.328 79.073 0.775999 64.961 0.775999H63.553C49.473 0.775999 47.489 8.328 47.489 12.552V13.512C47.489 17.704 49.473 25.416 63.553 25.416H64.961C79.105 25.416 81.025 17.672 81.025 13.512V12.552ZM73.217 13.224C73.217 15.944 71.521 19.592 64.257 19.592C56.993 19.592 55.297 15.848 55.297 13.16V12.776C55.297 10.088 56.833 6.568 64.257 6.568C71.553 6.568 73.217 10.088 73.217 12.776V13.224ZM89.2695 19.4H81.5575V25H89.2695V19.4ZM106.002 25.416C116.882 25.416 119.186 20.84 119.186 16.968V16.776C119.186 12.424 117.042 8.776 107.602 8.776H107.314C101.49 8.776 99.2823 10.632 98.8343 10.984V6.728L117.522 6.728V1.192L91.5063 1.192V15.816H98.7703C98.8343 15.592 99.5063 13.896 105.234 13.896C110.706 13.896 111.378 15.496 111.378 16.808V17C111.378 18.312 110.706 19.912 105.234 19.912C99.4743 19.912 98.9623 17.896 98.8663 17.544H90.9943V17.768C90.9943 20.104 92.5303 25.416 104.498 25.416H106.002ZM131.512 1.192V25H138.872V9.224L155.032 25H162.392V1.192L155.032 1.192V16.168L139.832 1.192L131.512 1.192ZM185.73 25L192.898 25V8.52L202.274 25H206.274L215.65 8.52V25H223.01V1.192L212.802 1.192L204.546 16.008L196.322 1.192L185.73 1.192V25Z" fill="white"/>
</svg>
