<svg width="405" height="84" viewBox="0 0 405 84" fill="none" xmlns="http://www.w3.org/2000/svg">
<path d="M3.072 9H3.684V1.152H6.708V0.599999H0.048V1.152H3.072V9ZM11.0937 2.688C9.92972 2.688 9.06572 3.192 8.63372 4.044V0.0959995H8.03372V9H8.63372V5.664C8.63372 4.176 9.53372 3.228 11.0097 3.228C12.2817 3.228 13.0377 3.972 13.0377 5.388V9H13.6377V5.34C13.6377 3.588 12.6177 2.688 11.0937 2.688ZM21.4237 5.844C21.4237 3.984 20.1517 2.688 18.4357 2.688C16.7197 2.688 15.4357 4.008 15.4357 5.868C15.4357 7.728 16.7677 9.048 18.6637 9.048C19.6117 9.048 20.4757 8.7 21.0277 8.028L20.6797 7.632C20.1997 8.22 19.4677 8.508 18.6757 8.508C17.1757 8.508 16.0837 7.5 16.0237 6.012H21.4117C21.4117 5.952 21.4237 5.892 21.4237 5.844ZM18.4357 3.216C19.7677 3.216 20.7517 4.188 20.8357 5.544H16.0357C16.1317 4.176 17.1037 3.216 18.4357 3.216ZM29.5058 2.688C28.4018 2.688 27.4658 3.228 26.9618 4.164V0.0959995H26.3618V9H26.9378V7.524C27.4298 8.484 28.3778 9.048 29.5058 9.048C31.2698 9.048 32.6018 7.74 32.6018 5.868C32.6018 3.984 31.2698 2.688 29.5058 2.688ZM29.4698 8.508C28.0298 8.508 26.9498 7.44 26.9498 5.868C26.9498 4.296 28.0298 3.228 29.4698 3.228C30.9098 3.228 32.0018 4.296 32.0018 5.868C32.0018 7.44 30.9098 8.508 29.4698 8.508ZM34.7595 1.212C35.0355 1.212 35.2515 0.995999 35.2515 0.719999C35.2515 0.456 35.0355 0.24 34.7595 0.24C34.4835 0.24 34.2675 0.468 34.2675 0.732C34.2675 0.995999 34.4835 1.212 34.7595 1.212ZM34.4595 9H35.0595V2.736H34.4595V9ZM42.4844 9H43.2284L40.2644 5.268L42.9644 2.736H42.1964L38.1884 6.396V0.0959995H37.5884V9H38.1884V7.14L39.8204 5.652L42.4844 9ZM49.6893 5.844C49.6893 3.984 48.4173 2.688 46.7013 2.688C44.9853 2.688 43.7013 4.008 43.7013 5.868C43.7013 7.728 45.0333 9.048 46.9293 9.048C47.8773 9.048 48.7413 8.7 49.2933 8.028L48.9453 7.632C48.4653 8.22 47.7333 8.508 46.9413 8.508C45.4413 8.508 44.3493 7.5 44.2893 6.012H49.6773C49.6773 5.952 49.6893 5.892 49.6893 5.844ZM46.7013 3.216C48.0333 3.216 49.0173 4.188 49.1013 5.544H44.3013C44.3973 4.176 45.3693 3.216 46.7013 3.216ZM57.1115 9.048C58.1075 9.048 58.9715 8.652 59.4875 7.896L59.0435 7.572C58.5875 8.208 57.8915 8.508 57.1115 8.508C55.6355 8.508 54.5555 7.452 54.5555 5.868C54.5555 4.284 55.6355 3.228 57.1115 3.228C57.8915 3.228 58.5875 3.528 59.0435 4.164L59.4875 3.84C58.9715 3.072 58.1075 2.688 57.1115 2.688C55.2755 2.688 53.9435 3.996 53.9435 5.868C53.9435 7.728 55.2755 9.048 57.1115 9.048ZM63.6263 9.048C65.4263 9.048 66.7583 7.728 66.7583 5.868C66.7583 4.008 65.4263 2.688 63.6263 2.688C61.8263 2.688 60.4943 4.008 60.4943 5.868C60.4943 7.728 61.8263 9.048 63.6263 9.048ZM63.6263 8.508C62.1863 8.508 61.1063 7.44 61.1063 5.868C61.1063 4.296 62.1863 3.228 63.6263 3.228C65.0663 3.228 66.1463 4.296 66.1463 5.868C66.1463 7.44 65.0663 8.508 63.6263 8.508ZM76.4197 2.688C75.2077 2.688 74.2957 3.288 73.8877 4.2C73.5517 3.204 72.7237 2.688 71.5957 2.688C70.4557 2.688 69.6037 3.204 69.1957 4.08V2.736H68.6197V9H69.2197V5.664C69.2197 4.176 70.0957 3.228 71.5117 3.228C72.7357 3.228 73.4677 3.972 73.4677 5.388V9H74.0677V5.664C74.0677 4.176 74.9437 3.228 76.3597 3.228C77.5837 3.228 78.3157 3.972 78.3157 5.388V9H78.9157V5.34C78.9157 3.588 77.9317 2.688 76.4197 2.688ZM86.7088 5.844C86.7088 3.984 85.4368 2.688 83.7208 2.688C82.0048 2.688 80.7208 4.008 80.7208 5.868C80.7208 7.728 82.0528 9.048 83.9488 9.048C84.8968 9.048 85.7608 8.7 86.3128 8.028L85.9648 7.632C85.4848 8.22 84.7528 8.508 83.9608 8.508C82.4608 8.508 81.3688 7.5 81.3088 6.012H86.6968C86.6968 5.952 86.7088 5.892 86.7088 5.844ZM83.7208 3.216C85.0528 3.216 86.0368 4.188 86.1208 5.544H81.3208C81.4168 4.176 82.3888 3.216 83.7208 3.216ZM90.149 9.048C91.745 9.048 92.621 8.352 92.621 7.332C92.621 4.944 88.469 6.276 88.469 4.392C88.469 3.72 89.009 3.216 90.233 3.216C90.905 3.216 91.589 3.396 92.117 3.78L92.393 3.3C91.901 2.928 91.037 2.688 90.245 2.688C88.661 2.688 87.869 3.456 87.869 4.404C87.869 6.864 92.021 5.52 92.021 7.344C92.021 8.052 91.493 8.52 90.173 8.52C89.249 8.52 88.397 8.172 87.917 7.764L87.641 8.244C88.133 8.7 89.117 9.048 90.149 9.048ZM97.6775 1.212C97.9535 1.212 98.1695 0.995999 98.1695 0.719999C98.1695 0.456 97.9535 0.24 97.6775 0.24C97.4015 0.24 97.1855 0.468 97.1855 0.732C97.1855 0.995999 97.4015 1.212 97.6775 1.212ZM97.3775 9H97.9775V2.736H97.3775V9ZM103.566 2.688C102.378 2.688 101.502 3.216 101.082 4.092V2.736H100.506V9H101.106V5.664C101.106 4.176 102.006 3.228 103.482 3.228C104.754 3.228 105.51 3.972 105.51 5.388V9H106.11V5.34C106.11 3.588 105.09 2.688 103.566 2.688ZM113.775 2.688C112.803 2.688 111.891 3.024 111.267 3.576L111.567 4.008C112.083 3.54 112.863 3.216 113.727 3.216C114.951 3.216 115.587 3.84 115.587 5.004V5.508H113.439C111.699 5.508 111.099 6.312 111.099 7.26C111.099 8.328 111.951 9.048 113.355 9.048C114.447 9.048 115.215 8.604 115.611 7.884V9H116.187V5.028C116.187 3.48 115.323 2.688 113.775 2.688ZM113.439 8.556C112.335 8.556 111.699 8.052 111.699 7.236C111.699 6.516 112.155 5.976 113.451 5.976H115.587V7.152C115.227 8.052 114.495 8.556 113.439 8.556ZM118.659 9H119.259V0.0959995H118.659V9ZM121.788 9H122.388V0.0959995H121.788V9ZM131.143 2.688C130.039 2.688 129.103 3.228 128.599 4.164V0.0959995H127.999V9H128.575V7.524C129.067 8.484 130.015 9.048 131.143 9.048C132.907 9.048 134.239 7.74 134.239 5.868C134.239 3.984 132.907 2.688 131.143 2.688ZM131.107 8.508C129.667 8.508 128.587 7.44 128.587 5.868C128.587 4.296 129.667 3.228 131.107 3.228C132.547 3.228 133.639 4.296 133.639 5.868C133.639 7.44 132.547 8.508 131.107 8.508ZM136.096 9H136.696V0.0959995H136.096V9ZM141.337 2.688C140.365 2.688 139.453 3.024 138.829 3.576L139.129 4.008C139.645 3.54 140.425 3.216 141.289 3.216C142.513 3.216 143.149 3.84 143.149 5.004V5.508H141.001C139.261 5.508 138.661 6.312 138.661 7.26C138.661 8.328 139.513 9.048 140.917 9.048C142.009 9.048 142.777 8.604 143.173 7.884V9H143.749V5.028C143.749 3.48 142.885 2.688 141.337 2.688ZM141.001 8.556C139.897 8.556 139.261 8.052 139.261 7.236C139.261 6.516 139.717 5.976 141.013 5.976H143.149V7.152C142.789 8.052 142.057 8.556 141.001 8.556ZM148.717 9.048C149.713 9.048 150.577 8.652 151.093 7.896L150.649 7.572C150.193 8.208 149.497 8.508 148.717 8.508C147.241 8.508 146.161 7.452 146.161 5.868C146.161 4.284 147.241 3.228 148.717 3.228C149.497 3.228 150.193 3.528 150.649 4.164L151.093 3.84C150.577 3.072 149.713 2.688 148.717 2.688C146.881 2.688 145.549 3.996 145.549 5.868C145.549 7.728 146.881 9.048 148.717 9.048ZM157.68 9H158.424L155.46 5.268L158.16 2.736H157.392L153.384 6.396V0.0959995H152.784V9H153.384V7.14L155.016 5.652L157.68 9ZM159.884 8.028C159.596 8.028 159.38 8.244 159.38 8.532C159.38 8.784 159.536 8.964 159.776 9.024L159.38 10.716H159.812L160.28 9.084C160.352 8.832 160.388 8.712 160.388 8.532C160.388 8.268 160.184 8.028 159.884 8.028ZM173.84 2.736L171.728 8.316L169.604 2.736H169.088L166.952 8.328L164.864 2.736H164.288L166.664 9H167.216L169.34 3.564L171.452 9H172.016L174.392 2.736H173.84ZM176.088 1.212C176.364 1.212 176.58 0.995999 176.58 0.719999C176.58 0.456 176.364 0.24 176.088 0.24C175.812 0.24 175.596 0.468 175.596 0.732C175.596 0.995999 175.812 1.212 176.088 1.212ZM175.788 9H176.388V2.736H175.788V9ZM181.773 8.184C181.521 8.412 181.173 8.532 180.801 8.532C180.033 8.532 179.637 8.088 179.637 7.284V3.252H181.629V2.736H179.637V1.368H179.037V2.736H177.885V3.252H179.037V7.344C179.037 8.4 179.637 9.048 180.741 9.048C181.209 9.048 181.713 8.904 182.025 8.604L181.773 8.184ZM186.758 2.688C185.594 2.688 184.73 3.192 184.298 4.044V0.0959995H183.698V9H184.298V5.664C184.298 4.176 185.198 3.228 186.674 3.228C187.946 3.228 188.702 3.972 188.702 5.388V9H189.302V5.34C189.302 3.588 188.282 2.688 186.758 2.688ZM196.966 2.688C195.994 2.688 195.082 3.024 194.458 3.576L194.758 4.008C195.274 3.54 196.054 3.216 196.918 3.216C198.142 3.216 198.778 3.84 198.778 5.004V5.508H196.63C194.89 5.508 194.29 6.312 194.29 7.26C194.29 8.328 195.142 9.048 196.546 9.048C197.638 9.048 198.406 8.604 198.802 7.884V9H199.378V5.028C199.378 3.48 198.514 2.688 196.966 2.688ZM196.63 8.556C195.526 8.556 194.89 8.052 194.89 7.236C194.89 6.516 195.346 5.976 196.642 5.976H198.778V7.152C198.418 8.052 197.686 8.556 196.63 8.556ZM205.508 4.104V2.736H204.932V9H205.532V5.736C205.532 4.188 206.36 3.264 207.752 3.264C207.8 3.264 207.848 3.276 207.896 3.276V2.688C206.72 2.688 205.892 3.192 205.508 4.104ZM214.795 5.844C214.795 3.984 213.523 2.688 211.807 2.688C210.091 2.688 208.807 4.008 208.807 5.868C208.807 7.728 210.139 9.048 212.035 9.048C212.983 9.048 213.847 8.7 214.399 8.028L214.051 7.632C213.571 8.22 212.839 8.508 212.047 8.508C210.547 8.508 209.455 7.5 209.395 6.012H214.783C214.783 5.952 214.795 5.892 214.795 5.844ZM211.807 3.216C213.139 3.216 214.123 4.188 214.207 5.544H209.407C209.503 4.176 210.475 3.216 211.807 3.216ZM216.651 9H217.251V0.0959995H216.651V9ZM221.892 2.688C220.92 2.688 220.008 3.024 219.384 3.576L219.684 4.008C220.2 3.54 220.98 3.216 221.844 3.216C223.068 3.216 223.704 3.84 223.704 5.004V5.508H221.556C219.816 5.508 219.216 6.312 219.216 7.26C219.216 8.328 220.068 9.048 221.472 9.048C222.564 9.048 223.332 8.604 223.728 7.884V9H224.304V5.028C224.304 3.48 223.44 2.688 221.892 2.688ZM221.556 8.556C220.452 8.556 219.816 8.052 219.816 7.236C219.816 6.516 220.272 5.976 221.568 5.976H223.704V7.152C223.344 8.052 222.612 8.556 221.556 8.556ZM229.632 8.184C229.38 8.412 229.032 8.532 228.66 8.532C227.892 8.532 227.496 8.088 227.496 7.284V3.252H229.488V2.736H227.496V1.368H226.896V2.736H225.744V3.252H226.896V7.344C226.896 8.4 227.496 9.048 228.6 9.048C229.068 9.048 229.572 8.904 229.884 8.604L229.632 8.184ZM231.857 1.212C232.133 1.212 232.349 0.995999 232.349 0.719999C232.349 0.456 232.133 0.24 231.857 0.24C231.581 0.24 231.365 0.468 231.365 0.732C231.365 0.995999 231.581 1.212 231.857 1.212ZM231.557 9H232.157V2.736H231.557V9ZM239.102 2.736L236.582 8.34L234.086 2.736H233.45L236.27 9H236.882L239.714 2.736H239.102ZM246.154 5.844C246.154 3.984 244.882 2.688 243.166 2.688C241.45 2.688 240.166 4.008 240.166 5.868C240.166 7.728 241.498 9.048 243.394 9.048C244.342 9.048 245.206 8.7 245.758 8.028L245.41 7.632C244.93 8.22 244.198 8.508 243.406 8.508C241.906 8.508 240.814 7.5 240.754 6.012H246.142C246.142 5.952 246.154 5.892 246.154 5.844ZM243.166 3.216C244.498 3.216 245.482 4.188 245.566 5.544H240.766C240.862 4.176 241.834 3.216 243.166 3.216ZM248.01 9H248.61V0.0959995H248.01V9ZM255.555 2.736L253.047 8.34L250.539 2.736H249.903L252.723 8.976L252.387 9.732C252.003 10.584 251.583 10.848 251.007 10.848C250.539 10.848 250.167 10.692 249.843 10.356L249.543 10.812C249.903 11.184 250.431 11.376 250.995 11.376C251.823 11.376 252.447 11.004 252.951 9.852L256.167 2.736H255.555ZM268.361 2.688C267.149 2.688 266.237 3.288 265.829 4.2C265.493 3.204 264.665 2.688 263.537 2.688C262.397 2.688 261.545 3.204 261.137 4.08V2.736H260.561V9H261.161V5.664C261.161 4.176 262.037 3.228 263.453 3.228C264.677 3.228 265.409 3.972 265.409 5.388V9H266.009V5.664C266.009 4.176 266.885 3.228 268.301 3.228C269.525 3.228 270.257 3.972 270.257 5.388V9H270.857V5.34C270.857 3.588 269.873 2.688 268.361 2.688ZM275.794 9.048C277.594 9.048 278.926 7.728 278.926 5.868C278.926 4.008 277.594 2.688 275.794 2.688C273.994 2.688 272.662 4.008 272.662 5.868C272.662 7.728 273.994 9.048 275.794 9.048ZM275.794 8.508C274.354 8.508 273.274 7.44 273.274 5.868C273.274 4.296 274.354 3.228 275.794 3.228C277.234 3.228 278.314 4.296 278.314 5.868C278.314 7.44 277.234 8.508 275.794 8.508ZM285.756 0.0959995V4.188C285.252 3.24 284.316 2.688 283.2 2.688C281.436 2.688 280.104 3.984 280.104 5.868C280.104 7.74 281.436 9.048 283.2 9.048C284.328 9.048 285.276 8.496 285.768 7.524V9H286.356V0.0959995H285.756ZM283.236 8.508C281.796 8.508 280.716 7.44 280.716 5.868C280.716 4.296 281.796 3.228 283.236 3.228C284.676 3.228 285.756 4.296 285.756 5.868C285.756 7.44 284.676 8.508 283.236 8.508ZM294.189 5.844C294.189 3.984 292.917 2.688 291.201 2.688C289.485 2.688 288.201 4.008 288.201 5.868C288.201 7.728 289.533 9.048 291.429 9.048C292.377 9.048 293.241 8.7 293.793 8.028L293.445 7.632C292.965 8.22 292.233 8.508 291.441 8.508C289.941 8.508 288.849 7.5 288.789 6.012H294.177C294.177 5.952 294.189 5.892 294.189 5.844ZM291.201 3.216C292.533 3.216 293.517 4.188 293.601 5.544H288.801C288.897 4.176 289.869 3.216 291.201 3.216ZM296.621 4.104V2.736H296.045V9H296.645V5.736C296.645 4.188 297.473 3.264 298.865 3.264C298.913 3.264 298.961 3.276 299.009 3.276V2.688C297.833 2.688 297.005 3.192 296.621 4.104ZM303.723 2.688C302.535 2.688 301.659 3.216 301.239 4.092V2.736H300.663V9H301.263V5.664C301.263 4.176 302.163 3.228 303.639 3.228C304.911 3.228 305.667 3.972 305.667 5.388V9H306.267V5.34C306.267 3.588 305.247 2.688 303.723 2.688ZM313.931 2.688C312.959 2.688 312.047 3.024 311.423 3.576L311.723 4.008C312.239 3.54 313.019 3.216 313.883 3.216C315.107 3.216 315.743 3.84 315.743 5.004V5.508H313.595C311.855 5.508 311.255 6.312 311.255 7.26C311.255 8.328 312.107 9.048 313.511 9.048C314.603 9.048 315.371 8.604 315.767 7.884V9H316.343V5.028C316.343 3.48 315.479 2.688 313.931 2.688ZM313.595 8.556C312.491 8.556 311.855 8.052 311.855 7.236C311.855 6.516 312.311 5.976 313.607 5.976H315.743V7.152C315.383 8.052 314.651 8.556 313.595 8.556ZM321.959 2.688C320.831 2.688 319.883 3.252 319.391 4.212V2.736H318.815V11.328H319.415V7.572C319.919 8.508 320.855 9.048 321.959 9.048C323.723 9.048 325.055 7.752 325.055 5.868C325.055 3.996 323.723 2.688 321.959 2.688ZM321.923 8.508C320.483 8.508 319.403 7.44 319.403 5.868C319.403 4.296 320.483 3.228 321.923 3.228C323.363 3.228 324.455 4.296 324.455 5.868C324.455 7.44 323.363 8.508 321.923 8.508ZM330.057 2.688C328.929 2.688 327.981 3.252 327.489 4.212V2.736H326.913V11.328H327.513V7.572C328.017 8.508 328.953 9.048 330.057 9.048C331.821 9.048 333.153 7.752 333.153 5.868C333.153 3.996 331.821 2.688 330.057 2.688ZM330.021 8.508C328.581 8.508 327.501 7.44 327.501 5.868C327.501 4.296 328.581 3.228 330.021 3.228C331.461 3.228 332.553 4.296 332.553 5.868C332.553 7.44 331.461 8.508 330.021 8.508ZM340.314 5.844C340.314 3.984 339.042 2.688 337.326 2.688C335.61 2.688 334.326 4.008 334.326 5.868C334.326 7.728 335.658 9.048 337.554 9.048C338.502 9.048 339.366 8.7 339.918 8.028L339.57 7.632C339.09 8.22 338.358 8.508 337.566 8.508C336.066 8.508 334.974 7.5 334.914 6.012H340.302C340.302 5.952 340.314 5.892 340.314 5.844ZM337.326 3.216C338.658 3.216 339.642 4.188 339.726 5.544H334.926C335.022 4.176 335.994 3.216 337.326 3.216ZM344.107 2.688C343.135 2.688 342.223 3.024 341.599 3.576L341.899 4.008C342.415 3.54 343.195 3.216 344.059 3.216C345.283 3.216 345.919 3.84 345.919 5.004V5.508H343.771C342.031 5.508 341.431 6.312 341.431 7.26C341.431 8.328 342.283 9.048 343.687 9.048C344.779 9.048 345.547 8.604 345.943 7.884V9H346.519V5.028C346.519 3.48 345.655 2.688 344.107 2.688ZM343.771 8.556C342.667 8.556 342.031 8.052 342.031 7.236C342.031 6.516 342.487 5.976 343.783 5.976H345.919V7.152C345.559 8.052 344.827 8.556 343.771 8.556ZM348.991 9H349.591V0.0959995H348.991V9ZM352.048 9.048C352.324 9.048 352.552 8.82 352.552 8.532C352.552 8.244 352.324 8.028 352.048 8.028C351.772 8.028 351.544 8.244 351.544 8.532C351.544 8.82 351.772 9.048 352.048 9.048ZM361.348 9.06C362.536 9.06 363.604 8.664 364.336 7.884L363.952 7.488C363.232 8.196 362.356 8.496 361.372 8.496C359.224 8.496 357.604 6.912 357.604 4.8C357.604 2.688 359.224 1.104 361.372 1.104C362.356 1.104 363.232 1.392 363.952 2.1L364.336 1.704C363.604 0.924 362.536 0.539999 361.348 0.539999C358.852 0.539999 356.992 2.352 356.992 4.8C356.992 7.248 358.852 9.06 361.348 9.06ZM369.254 2.688C368.09 2.688 367.226 3.192 366.794 4.044V0.0959995H366.194V9H366.794V5.664C366.794 4.176 367.694 3.228 369.17 3.228C370.442 3.228 371.198 3.972 371.198 5.388V9H371.798V5.34C371.798 3.588 370.778 2.688 369.254 2.688ZM374.844 4.104V2.736H374.268V9H374.868V5.736C374.868 4.188 375.696 3.264 377.088 3.264C377.136 3.264 377.184 3.276 377.232 3.276V2.688C376.056 2.688 375.228 3.192 374.844 4.104ZM381.275 9.048C383.075 9.048 384.407 7.728 384.407 5.868C384.407 4.008 383.075 2.688 381.275 2.688C379.475 2.688 378.143 4.008 378.143 5.868C378.143 7.728 379.475 9.048 381.275 9.048ZM381.275 8.508C379.835 8.508 378.755 7.44 378.755 5.868C378.755 4.296 379.835 3.228 381.275 3.228C382.715 3.228 383.795 4.296 383.795 5.868C383.795 7.44 382.715 8.508 381.275 8.508ZM394.068 2.688C392.856 2.688 391.944 3.288 391.536 4.2C391.2 3.204 390.372 2.688 389.244 2.688C388.104 2.688 387.252 3.204 386.844 4.08V2.736H386.268V9H386.868V5.664C386.868 4.176 387.744 3.228 389.16 3.228C390.384 3.228 391.116 3.972 391.116 5.388V9H391.716V5.664C391.716 4.176 392.592 3.228 394.008 3.228C395.232 3.228 395.964 3.972 395.964 5.388V9H396.564V5.34C396.564 3.588 395.58 2.688 394.068 2.688ZM404.357 5.844C404.357 3.984 403.085 2.688 401.369 2.688C399.653 2.688 398.369 4.008 398.369 5.868C398.369 7.728 399.701 9.048 401.597 9.048C402.545 9.048 403.409 8.7 403.961 8.028L403.613 7.632C403.133 8.22 402.401 8.508 401.609 8.508C400.109 8.508 399.017 7.5 398.957 6.012H404.345C404.345 5.952 404.357 5.892 404.357 5.844ZM401.369 3.216C402.701 3.216 403.685 4.188 403.769 5.544H398.969C399.065 4.176 400.037 3.216 401.369 3.216ZM3.384 26.688C2.412 26.688 1.5 27.024 0.876 27.576L1.176 28.008C1.692 27.54 2.472 27.216 3.336 27.216C4.56 27.216 5.196 27.84 5.196 29.004V29.508H3.048C1.308 29.508 0.708 30.312 0.708 31.26C0.708 32.328 1.56 33.048 2.964 33.048C4.056 33.048 4.824 32.604 5.22 31.884V33H5.796V29.028C5.796 27.48 4.932 26.688 3.384 26.688ZM3.048 32.556C1.944 32.556 1.308 32.052 1.308 31.236C1.308 30.516 1.764 29.976 3.06 29.976H5.196V31.152C4.836 32.052 4.104 32.556 3.048 32.556ZM10.7638 33.048C11.7598 33.048 12.6238 32.652 13.1398 31.896L12.6958 31.572C12.2398 32.208 11.5438 32.508 10.7638 32.508C9.28781 32.508 8.20781 31.452 8.20781 29.868C8.20781 28.284 9.28781 27.228 10.7638 27.228C11.5438 27.228 12.2398 27.528 12.6958 28.164L13.1398 27.84C12.6238 27.072 11.7598 26.688 10.7638 26.688C8.92781 26.688 7.59581 27.996 7.59581 29.868C7.59581 31.728 8.92781 33.048 10.7638 33.048ZM17.3146 33.048C18.3106 33.048 19.1746 32.652 19.6906 31.896L19.2466 31.572C18.7906 32.208 18.0946 32.508 17.3146 32.508C15.8386 32.508 14.7586 31.452 14.7586 29.868C14.7586 28.284 15.8386 27.228 17.3146 27.228C18.0946 27.228 18.7906 27.528 19.2466 28.164L19.6906 27.84C19.1746 27.072 18.3106 26.688 17.3146 26.688C15.4786 26.688 14.1466 27.996 14.1466 29.868C14.1466 31.728 15.4786 33.048 17.3146 33.048ZM26.6854 29.844C26.6854 27.984 25.4134 26.688 23.6974 26.688C21.9814 26.688 20.6974 28.008 20.6974 29.868C20.6974 31.728 22.0294 33.048 23.9254 33.048C24.8734 33.048 25.7374 32.7 26.2894 32.028L25.9414 31.632C25.4614 32.22 24.7294 32.508 23.9374 32.508C22.4374 32.508 21.3454 31.5 21.2854 30.012H26.6734C26.6734 29.952 26.6854 29.892 26.6854 29.844ZM23.6974 27.216C25.0294 27.216 26.0134 28.188 26.0974 29.544H21.2974C21.3934 28.176 22.3654 27.216 23.6974 27.216ZM31.6015 26.688C30.4135 26.688 29.5375 27.216 29.1175 28.092V26.736H28.5415V33H29.1415V29.664C29.1415 28.176 30.0415 27.228 31.5175 27.228C32.7895 27.228 33.5455 27.972 33.5455 29.388V33H34.1455V29.34C34.1455 27.588 33.1255 26.688 31.6015 26.688ZM39.4718 32.184C39.2198 32.412 38.8717 32.532 38.4998 32.532C37.7318 32.532 37.3358 32.088 37.3358 31.284V27.252H39.3278V26.736H37.3358V25.368H36.7358V26.736H35.5838V27.252H36.7358V31.344C36.7358 32.4 37.3358 33.048 38.4398 33.048C38.9078 33.048 39.4118 32.904 39.7238 32.604L39.4718 32.184ZM42.981 33.048C44.577 33.048 45.453 32.352 45.453 31.332C45.453 28.944 41.301 30.276 41.301 28.392C41.301 27.72 41.841 27.216 43.065 27.216C43.737 27.216 44.421 27.396 44.949 27.78L45.225 27.3C44.733 26.928 43.869 26.688 43.077 26.688C41.493 26.688 40.701 27.456 40.701 28.404C40.701 30.864 44.853 29.52 44.853 31.344C44.853 32.052 44.325 32.52 43.005 32.52C42.081 32.52 41.229 32.172 40.749 31.764L40.473 32.244C40.965 32.7 41.949 33.048 42.981 33.048ZM50.5095 25.212C50.7855 25.212 51.0015 24.996 51.0015 24.72C51.0015 24.456 50.7855 24.24 50.5095 24.24C50.2335 24.24 50.0175 24.468 50.0175 24.732C50.0175 24.996 50.2335 25.212 50.5095 25.212ZM50.2095 33H50.8095V26.736H50.2095V33ZM56.3984 26.688C55.2104 26.688 54.3344 27.216 53.9144 28.092V26.736H53.3384V33H53.9384V29.664C53.9384 28.176 54.8384 27.228 56.3144 27.228C57.5864 27.228 58.3424 27.972 58.3424 29.388V33H58.9424V29.34C58.9424 27.588 57.9224 26.688 56.3984 26.688ZM64.8547 25.212C65.1307 25.212 65.3467 24.996 65.3467 24.72C65.3467 24.456 65.1307 24.24 64.8547 24.24C64.5787 24.24 64.3627 24.468 64.3627 24.732C64.3627 24.996 64.5787 25.212 64.8547 25.212ZM63.4627 35.376C64.5547 35.376 65.1547 34.68 65.1547 33.624V26.736H64.5547V33.6C64.5547 34.416 64.1587 34.86 63.4267 34.86C63.0187 34.86 62.6587 34.74 62.4067 34.512L62.1667 34.956C62.4667 35.244 62.9587 35.376 63.4627 35.376ZM72.5662 26.736V30.072C72.5662 31.56 71.6902 32.508 70.2742 32.508C68.9662 32.508 68.2102 31.764 68.2102 30.348V26.736H67.6102V30.396C67.6102 32.148 68.6302 33.048 70.2262 33.048C71.3302 33.048 72.1822 32.532 72.5902 31.656V33H73.1662V26.736H72.5662ZM77.2935 33.048C78.8895 33.048 79.7655 32.352 79.7655 31.332C79.7655 28.944 75.6135 30.276 75.6135 28.392C75.6135 27.72 76.1535 27.216 77.3775 27.216C78.0495 27.216 78.7335 27.396 79.2615 27.78L79.5375 27.3C79.0455 26.928 78.1815 26.688 77.3895 26.688C75.8055 26.688 75.0135 27.456 75.0135 28.404C75.0135 30.864 79.1655 29.52 79.1655 31.344C79.1655 32.052 78.6375 32.52 77.3175 32.52C76.3935 32.52 75.5415 32.172 75.0615 31.764L74.7855 32.244C75.2775 32.7 76.2615 33.048 77.2935 33.048ZM84.296 32.184C84.044 32.412 83.696 32.532 83.324 32.532C82.556 32.532 82.16 32.088 82.16 31.284V27.252H84.152V26.736H82.16V25.368H81.56V26.736H80.408V27.252H81.56V31.344C81.56 32.4 82.16 33.048 83.264 33.048C83.732 33.048 84.236 32.904 84.548 32.604L84.296 32.184ZM92.1593 32.184C91.9073 32.412 91.5592 32.532 91.1873 32.532C90.4193 32.532 90.0233 32.088 90.0233 31.284V27.252H92.0153V26.736H90.0233V25.368H89.4233V26.736H88.2713V27.252H89.4233V31.344C89.4233 32.4 90.0233 33.048 91.1273 33.048C91.5953 33.048 92.0993 32.904 92.4113 32.604L92.1593 32.184ZM97.1445 26.688C95.9805 26.688 95.1165 27.192 94.6845 28.044V24.096H94.0845V33H94.6845V29.664C94.6845 28.176 95.5845 27.228 97.0605 27.228C98.3325 27.228 99.0885 27.972 99.0885 29.388V33H99.6885V29.34C99.6885 27.588 98.6685 26.688 97.1445 26.688ZM107.474 29.844C107.474 27.984 106.202 26.688 104.486 26.688C102.77 26.688 101.486 28.008 101.486 29.868C101.486 31.728 102.818 33.048 104.714 33.048C105.662 33.048 106.526 32.7 107.078 32.028L106.73 31.632C106.25 32.22 105.518 32.508 104.726 32.508C103.226 32.508 102.134 31.5 102.074 30.012H107.462C107.462 29.952 107.474 29.892 107.474 29.844ZM104.486 27.216C105.818 27.216 106.802 28.188 106.886 29.544H102.086C102.182 28.176 103.154 27.216 104.486 27.216ZM112.989 28.104V26.736H112.413V33H113.013V29.736C113.013 28.188 113.841 27.264 115.233 27.264C115.281 27.264 115.329 27.276 115.377 27.276V26.688C114.201 26.688 113.373 27.192 112.989 28.104ZM117.33 25.212C117.606 25.212 117.822 24.996 117.822 24.72C117.822 24.456 117.606 24.24 117.33 24.24C117.054 24.24 116.838 24.468 116.838 24.732C116.838 24.996 117.054 25.212 117.33 25.212ZM117.03 33H117.63V26.736H117.03V33ZM125.223 26.736V28.152C124.719 27.216 123.747 26.688 122.595 26.688C120.819 26.688 119.475 27.936 119.475 29.724C119.475 31.512 120.819 32.772 122.595 32.772C123.723 32.772 124.683 32.256 125.199 31.344V32.4C125.199 34.068 124.419 34.836 122.751 34.836C121.743 34.836 120.843 34.5 120.219 33.924L119.895 34.38C120.531 35.016 121.623 35.376 122.763 35.376C124.779 35.376 125.799 34.428 125.799 32.328V26.736H125.223ZM122.643 32.232C121.167 32.232 120.087 31.2 120.087 29.724C120.087 28.248 121.167 27.228 122.643 27.228C124.131 27.228 125.211 28.248 125.211 29.724C125.211 31.2 124.131 32.232 122.643 32.232ZM131.398 26.688C130.234 26.688 129.37 27.192 128.938 28.044V24.096H128.338V33H128.938V29.664C128.938 28.176 129.838 27.228 131.314 27.228C132.586 27.228 133.342 27.972 133.342 29.388V33H133.942V29.34C133.942 27.588 132.922 26.688 131.398 26.688ZM139.269 32.184C139.017 32.412 138.669 32.532 138.297 32.532C137.529 32.532 137.133 32.088 137.133 31.284V27.252H139.125V26.736H137.133V25.368H136.533V26.736H135.381V27.252H136.533V31.344C136.533 32.4 137.133 33.048 138.237 33.048C138.705 33.048 139.209 32.904 139.521 32.604L139.269 32.184ZM147.42 26.688C146.292 26.688 145.344 27.252 144.852 28.212V26.736H144.276V35.328H144.876V31.572C145.38 32.508 146.316 33.048 147.42 33.048C149.184 33.048 150.516 31.752 150.516 29.868C150.516 27.996 149.184 26.688 147.42 26.688ZM147.384 32.508C145.944 32.508 144.864 31.44 144.864 29.868C144.864 28.296 145.944 27.228 147.384 27.228C148.824 27.228 149.916 28.296 149.916 29.868C149.916 31.44 148.824 32.508 147.384 32.508ZM152.374 33H152.974V24.096H152.374V33ZM157.614 26.688C156.642 26.688 155.73 27.024 155.106 27.576L155.406 28.008C155.922 27.54 156.702 27.216 157.566 27.216C158.79 27.216 159.426 27.84 159.426 29.004V29.508H157.278C155.538 29.508 154.938 30.312 154.938 31.26C154.938 32.328 155.79 33.048 157.194 33.048C158.286 33.048 159.054 32.604 159.45 31.884V33H160.026V29.028C160.026 27.48 159.162 26.688 157.614 26.688ZM157.278 32.556C156.174 32.556 155.538 32.052 155.538 31.236C155.538 30.516 155.994 29.976 157.29 29.976H159.426V31.152C159.066 32.052 158.334 32.556 157.278 32.556ZM164.994 33.048C165.99 33.048 166.854 32.652 167.37 31.896L166.926 31.572C166.47 32.208 165.774 32.508 164.994 32.508C163.518 32.508 162.438 31.452 162.438 29.868C162.438 28.284 163.518 27.228 164.994 27.228C165.774 27.228 166.47 27.528 166.926 28.164L167.37 27.84C166.854 27.072 165.99 26.688 164.994 26.688C163.158 26.688 161.826 27.996 161.826 29.868C161.826 31.728 163.158 33.048 164.994 33.048ZM174.365 29.844C174.365 27.984 173.093 26.688 171.377 26.688C169.661 26.688 168.377 28.008 168.377 29.868C168.377 31.728 169.709 33.048 171.605 33.048C172.553 33.048 173.417 32.7 173.969 32.028L173.621 31.632C173.141 32.22 172.409 32.508 171.617 32.508C170.117 32.508 169.025 31.5 168.965 30.012H174.353C174.353 29.952 174.365 29.892 174.365 29.844ZM171.377 27.216C172.709 27.216 173.693 28.188 173.777 29.544H168.977C169.073 28.176 170.045 27.216 171.377 27.216ZM177.805 33.048C179.401 33.048 180.277 32.352 180.277 31.332C180.277 28.944 176.125 30.276 176.125 28.392C176.125 27.72 176.665 27.216 177.889 27.216C178.561 27.216 179.245 27.396 179.773 27.78L180.049 27.3C179.557 26.928 178.693 26.688 177.901 26.688C176.317 26.688 175.525 27.456 175.525 28.404C175.525 30.864 179.677 29.52 179.677 31.344C179.677 32.052 179.149 32.52 177.829 32.52C176.905 32.52 176.053 32.172 175.573 31.764L175.297 32.244C175.789 32.7 176.773 33.048 177.805 33.048ZM192.834 26.688C191.622 26.688 190.71 27.288 190.302 28.2C189.966 27.204 189.138 26.688 188.01 26.688C186.87 26.688 186.018 27.204 185.61 28.08V26.736H185.034V33H185.634V29.664C185.634 28.176 186.51 27.228 187.926 27.228C189.15 27.228 189.882 27.972 189.882 29.388V33H190.482V29.664C190.482 28.176 191.358 27.228 192.774 27.228C193.998 27.228 194.73 27.972 194.73 29.388V33H195.33V29.34C195.33 27.588 194.346 26.688 192.834 26.688ZM199.919 26.688C198.947 26.688 198.035 27.024 197.411 27.576L197.711 28.008C198.227 27.54 199.007 27.216 199.871 27.216C201.095 27.216 201.731 27.84 201.731 29.004V29.508H199.583C197.843 29.508 197.243 30.312 197.243 31.26C197.243 32.328 198.095 33.048 199.499 33.048C200.591 33.048 201.359 32.604 201.755 31.884V33H202.331V29.028C202.331 27.48 201.467 26.688 199.919 26.688ZM199.583 32.556C198.479 32.556 197.843 32.052 197.843 31.236C197.843 30.516 198.299 29.976 199.595 29.976H201.731V31.152C201.371 32.052 200.639 32.556 199.583 32.556ZM209.699 33H210.443L207.479 29.268L210.179 26.736H209.411L205.403 30.396V24.096H204.803V33H205.403V31.14L207.035 29.652L209.699 33ZM216.904 29.844C216.904 27.984 215.632 26.688 213.916 26.688C212.2 26.688 210.916 28.008 210.916 29.868C210.916 31.728 212.248 33.048 214.144 33.048C215.092 33.048 215.956 32.7 216.508 32.028L216.16 31.632C215.68 32.22 214.948 32.508 214.156 32.508C212.656 32.508 211.564 31.5 211.504 30.012H216.892C216.892 29.952 216.904 29.892 216.904 29.844ZM213.916 27.216C215.248 27.216 216.232 28.188 216.316 29.544H211.516C211.612 28.176 212.584 27.216 213.916 27.216ZM224.698 32.184C224.446 32.412 224.098 32.532 223.726 32.532C222.958 32.532 222.562 32.088 222.562 31.284V27.252H224.554V26.736H222.562V25.368H221.962V26.736H220.81V27.252H221.962V31.344C221.962 32.4 222.562 33.048 223.666 33.048C224.134 33.048 224.638 32.904 224.95 32.604L224.698 32.184ZM229.684 26.688C228.52 26.688 227.656 27.192 227.224 28.044V24.096H226.624V33H227.224V29.664C227.224 28.176 228.124 27.228 229.6 27.228C230.872 27.228 231.628 27.972 231.628 29.388V33H232.228V29.34C232.228 27.588 231.208 26.688 229.684 26.688ZM240.014 29.844C240.014 27.984 238.742 26.688 237.026 26.688C235.31 26.688 234.026 28.008 234.026 29.868C234.026 31.728 235.358 33.048 237.254 33.048C238.202 33.048 239.066 32.7 239.618 32.028L239.27 31.632C238.79 32.22 238.058 32.508 237.266 32.508C235.766 32.508 234.674 31.5 234.614 30.012H240.002C240.002 29.952 240.014 29.892 240.014 29.844ZM237.026 27.216C238.358 27.216 239.342 28.188 239.426 29.544H234.626C234.722 28.176 235.694 27.216 237.026 27.216ZM248.096 26.688C246.992 26.688 246.056 27.228 245.552 28.164V24.096H244.952V33H245.528V31.524C246.02 32.484 246.968 33.048 248.096 33.048C249.86 33.048 251.192 31.74 251.192 29.868C251.192 27.984 249.86 26.688 248.096 26.688ZM248.06 32.508C246.62 32.508 245.54 31.44 245.54 29.868C245.54 28.296 246.62 27.228 248.06 27.228C249.5 27.228 250.592 28.296 250.592 29.868C250.592 31.44 249.5 32.508 248.06 32.508ZM253.349 25.212C253.625 25.212 253.841 24.996 253.841 24.72C253.841 24.456 253.625 24.24 253.349 24.24C253.073 24.24 252.857 24.468 252.857 24.732C252.857 24.996 253.073 25.212 253.349 25.212ZM253.049 33H253.649V26.736H253.049V33ZM261.074 33H261.818L258.854 29.268L261.554 26.736H260.786L256.778 30.396V24.096H256.178V33H256.778V31.14L258.41 29.652L261.074 33ZM268.279 29.844C268.279 27.984 267.007 26.688 265.291 26.688C263.575 26.688 262.291 28.008 262.291 29.868C262.291 31.728 263.623 33.048 265.519 33.048C266.467 33.048 267.331 32.7 267.883 32.028L267.535 31.632C267.055 32.22 266.323 32.508 265.531 32.508C264.031 32.508 262.939 31.5 262.879 30.012H268.267C268.267 29.952 268.279 29.892 268.279 29.844ZM265.291 27.216C266.623 27.216 267.607 28.188 267.691 29.544H262.891C262.987 28.176 263.959 27.216 265.291 27.216ZM274.801 33.048C276.397 33.048 277.273 32.352 277.273 31.332C277.273 28.944 273.121 30.276 273.121 28.392C273.121 27.72 273.661 27.216 274.885 27.216C275.557 27.216 276.241 27.396 276.769 27.78L277.045 27.3C276.553 26.928 275.689 26.688 274.897 26.688C273.313 26.688 272.521 27.456 272.521 28.404C272.521 30.864 276.673 29.52 276.673 31.344C276.673 32.052 276.145 32.52 274.825 32.52C273.901 32.52 273.049 32.172 272.569 31.764L272.293 32.244C272.785 32.7 273.769 33.048 274.801 33.048ZM281.804 32.184C281.552 32.412 281.204 32.532 280.832 32.532C280.064 32.532 279.668 32.088 279.668 31.284V27.252H281.66V26.736H279.668V25.368H279.068V26.736H277.916V27.252H279.068V31.344C279.068 32.4 279.668 33.048 280.772 33.048C281.24 33.048 281.744 32.904 282.056 32.604L281.804 32.184ZM285.841 26.688C284.869 26.688 283.957 27.024 283.333 27.576L283.633 28.008C284.149 27.54 284.929 27.216 285.793 27.216C287.017 27.216 287.653 27.84 287.653 29.004V29.508H285.505C283.765 29.508 283.165 30.312 283.165 31.26C283.165 32.328 284.017 33.048 285.421 33.048C286.513 33.048 287.281 32.604 287.677 31.884V33H288.253V29.028C288.253 27.48 287.389 26.688 285.841 26.688ZM285.505 32.556C284.401 32.556 283.765 32.052 283.765 31.236C283.765 30.516 284.221 29.976 285.517 29.976H287.653V31.152C287.293 32.052 286.561 32.556 285.505 32.556ZM293.785 26.688C292.597 26.688 291.721 27.216 291.301 28.092V26.736H290.725V33H291.325V29.664C291.325 28.176 292.225 27.228 293.701 27.228C294.973 27.228 295.729 27.972 295.729 29.388V33H296.329V29.34C296.329 27.588 295.309 26.688 293.785 26.688ZM303.779 24.096V28.188C303.275 27.24 302.339 26.688 301.223 26.688C299.459 26.688 298.127 27.984 298.127 29.868C298.127 31.74 299.459 33.048 301.223 33.048C302.351 33.048 303.299 32.496 303.791 31.524V33H304.379V24.096H303.779ZM301.259 32.508C299.819 32.508 298.739 31.44 298.739 29.868C298.739 28.296 299.819 27.228 301.259 27.228C302.699 27.228 303.779 28.296 303.779 29.868C303.779 31.44 302.699 32.508 301.259 32.508ZM312.439 33.048C314.239 33.048 315.571 31.728 315.571 29.868C315.571 28.008 314.239 26.688 312.439 26.688C310.639 26.688 309.307 28.008 309.307 29.868C309.307 31.728 310.639 33.048 312.439 33.048ZM312.439 32.508C310.999 32.508 309.919 31.44 309.919 29.868C309.919 28.296 310.999 27.228 312.439 27.228C313.879 27.228 314.959 28.296 314.959 29.868C314.959 31.44 313.879 32.508 312.439 32.508ZM322.316 26.736V30.072C322.316 31.56 321.44 32.508 320.024 32.508C318.716 32.508 317.96 31.764 317.96 30.348V26.736H317.36V30.396C317.36 32.148 318.38 33.048 319.976 33.048C321.08 33.048 321.932 32.532 322.34 31.656V33H322.916V26.736H322.316ZM328.316 32.184C328.064 32.412 327.715 32.532 327.344 32.532C326.576 32.532 326.18 32.088 326.18 31.284V27.252H328.172V26.736H326.18V25.368H325.58V26.736H324.428V27.252H325.58V31.344C325.58 32.4 326.18 33.048 327.284 33.048C327.752 33.048 328.256 32.904 328.568 32.604L328.316 32.184ZM330.286 32.028C329.998 32.028 329.782 32.244 329.782 32.532C329.782 32.784 329.938 32.964 330.178 33.024L329.782 34.716H330.214L330.682 33.084C330.754 32.832 330.79 32.712 330.79 32.532C330.79 32.268 330.586 32.028 330.286 32.028ZM344.242 26.736L342.13 32.316L340.006 26.736H339.49L337.354 32.328L335.266 26.736H334.69L337.066 33H337.618L339.742 27.564L341.854 33H342.418L344.794 26.736H344.242ZM349.25 26.688C348.086 26.688 347.222 27.192 346.79 28.044V24.096H346.19V33H346.79V29.664C346.79 28.176 347.69 27.228 349.166 27.228C350.438 27.228 351.194 27.972 351.194 29.388V33H351.794V29.34C351.794 27.588 350.774 26.688 349.25 26.688ZM354.564 25.212C354.84 25.212 355.056 24.996 355.056 24.72C355.056 24.456 354.84 24.24 354.564 24.24C354.288 24.24 354.072 24.468 354.072 24.732C354.072 24.996 354.288 25.212 354.564 25.212ZM354.264 33H354.864V26.736H354.264V33ZM357.393 33H357.993V24.096H357.393V33ZM365.826 29.844C365.826 27.984 364.554 26.688 362.838 26.688C361.122 26.688 359.838 28.008 359.838 29.868C359.838 31.728 361.17 33.048 363.066 33.048C364.014 33.048 364.878 32.7 365.43 32.028L365.082 31.632C364.602 32.22 363.87 32.508 363.078 32.508C361.578 32.508 360.486 31.5 360.426 30.012H365.814C365.814 29.952 365.826 29.892 365.826 29.844ZM362.838 27.216C364.17 27.216 365.154 28.188 365.238 29.544H360.438C360.534 28.176 361.506 27.216 362.838 27.216ZM373.62 32.184C373.368 32.412 373.02 32.532 372.648 32.532C371.88 32.532 371.484 32.088 371.484 31.284V27.252H373.476V26.736H371.484V25.368H370.884V26.736H369.732V27.252H370.884V31.344C370.884 32.4 371.484 33.048 372.588 33.048C373.056 33.048 373.56 32.904 373.872 32.604L373.62 32.184ZM378.605 26.688C377.441 26.688 376.577 27.192 376.145 28.044V24.096H375.545V33H376.145V29.664C376.145 28.176 377.045 27.228 378.521 27.228C379.793 27.228 380.549 27.972 380.549 29.388V33H381.149V29.34C381.149 27.588 380.129 26.688 378.605 26.688ZM388.935 29.844C388.935 27.984 387.663 26.688 385.947 26.688C384.231 26.688 382.947 28.008 382.947 29.868C382.947 31.728 384.279 33.048 386.175 33.048C387.123 33.048 387.987 32.7 388.539 32.028L388.191 31.632C387.711 32.22 386.979 32.508 386.187 32.508C384.687 32.508 383.595 31.5 383.535 30.012H388.923C388.923 29.952 388.935 29.892 388.935 29.844ZM385.947 27.216C387.279 27.216 388.263 28.188 388.347 29.544H383.547C383.643 28.176 384.615 27.216 385.947 27.216ZM4.416 50.688C3.312 50.688 2.376 51.228 1.872 52.164V48.096H1.272V57H1.848V55.524C2.34 56.484 3.288 57.048 4.416 57.048C6.18 57.048 7.512 55.74 7.512 53.868C7.512 51.984 6.18 50.688 4.416 50.688ZM4.38 56.508C2.94 56.508 1.86 55.44 1.86 53.868C1.86 52.296 2.94 51.228 4.38 51.228C5.82 51.228 6.912 52.296 6.912 53.868C6.912 55.44 5.82 56.508 4.38 56.508ZM9.36966 57H9.96966V48.096H9.36966V57ZM14.6106 50.688C13.6386 50.688 12.7266 51.024 12.1026 51.576L12.4026 52.008C12.9186 51.54 13.6986 51.216 14.5626 51.216C15.7866 51.216 16.4226 51.84 16.4226 53.004V53.508H14.2746C12.5346 53.508 11.9346 54.312 11.9346 55.26C11.9346 56.328 12.7866 57.048 14.1906 57.048C15.2826 57.048 16.0506 56.604 16.4466 55.884V57H17.0226V53.028C17.0226 51.48 16.1586 50.688 14.6106 50.688ZM14.2746 56.556C13.1706 56.556 12.5346 56.052 12.5346 55.236C12.5346 54.516 12.9906 53.976 14.2866 53.976H16.4226V55.152C16.0626 56.052 15.3306 56.556 14.2746 56.556ZM21.9904 57.048C22.9864 57.048 23.8504 56.652 24.3664 55.896L23.9224 55.572C23.4664 56.208 22.7704 56.508 21.9904 56.508C20.5144 56.508 19.4344 55.452 19.4344 53.868C19.4344 52.284 20.5144 51.228 21.9904 51.228C22.7704 51.228 23.4664 51.528 23.9224 52.164L24.3664 51.84C23.8504 51.072 22.9864 50.688 21.9904 50.688C20.1544 50.688 18.8224 51.996 18.8224 53.868C18.8224 55.728 20.1544 57.048 21.9904 57.048ZM30.9532 57H31.6972L28.7332 53.268L31.4332 50.736H30.6652L26.6572 54.396V48.096H26.0572V57H26.6572V55.14L28.2892 53.652L30.9532 57ZM32.326 54.048H35.41V53.508H32.326V54.048ZM39.9895 57.048C41.7895 57.048 43.1215 55.728 43.1215 53.868C43.1215 52.008 41.7895 50.688 39.9895 50.688C38.1895 50.688 36.8575 52.008 36.8575 53.868C36.8575 55.728 38.1895 57.048 39.9895 57.048ZM39.9895 56.508C38.5495 56.508 37.4695 55.44 37.4695 53.868C37.4695 52.296 38.5495 51.228 39.9895 51.228C41.4295 51.228 42.5095 52.296 42.5095 53.868C42.5095 55.44 41.4295 56.508 39.9895 56.508ZM48.0429 50.688C46.8549 50.688 45.9789 51.216 45.5589 52.092V50.736H44.9829V57H45.5829V53.664C45.5829 52.176 46.4829 51.228 47.9589 51.228C49.2309 51.228 49.9869 51.972 49.9869 53.388V57H50.5869V53.34C50.5869 51.588 49.5669 50.688 48.0429 50.688ZM52.5292 54.048H55.6132V53.508H52.5292V54.048ZM60.7715 50.688C59.6675 50.688 58.7315 51.228 58.2275 52.164V48.096H57.6275V57H58.2035V55.524C58.6955 56.484 59.6435 57.048 60.7715 57.048C62.5355 57.048 63.8675 55.74 63.8675 53.868C63.8675 51.984 62.5355 50.688 60.7715 50.688ZM60.7355 56.508C59.2955 56.508 58.2155 55.44 58.2155 53.868C58.2155 52.296 59.2955 51.228 60.7355 51.228C62.1755 51.228 63.2675 52.296 63.2675 53.868C63.2675 55.44 62.1755 56.508 60.7355 56.508ZM65.7251 57H66.3251V48.096H65.7251V57ZM70.966 50.688C69.994 50.688 69.082 51.024 68.458 51.576L68.758 52.008C69.274 51.54 70.054 51.216 70.918 51.216C72.142 51.216 72.778 51.84 72.778 53.004V53.508H70.63C68.89 53.508 68.29 54.312 68.29 55.26C68.29 56.328 69.142 57.048 70.546 57.048C71.638 57.048 72.406 56.604 72.802 55.884V57H73.378V53.028C73.378 51.48 72.514 50.688 70.966 50.688ZM70.63 56.556C69.526 56.556 68.89 56.052 68.89 55.236C68.89 54.516 69.346 53.976 70.642 53.976H72.778V55.152C72.418 56.052 71.686 56.556 70.63 56.556ZM78.3458 57.048C79.3418 57.048 80.2058 56.652 80.7218 55.896L80.2778 55.572C79.8218 56.208 79.1258 56.508 78.3458 56.508C76.8698 56.508 75.7898 55.452 75.7898 53.868C75.7898 52.284 76.8698 51.228 78.3458 51.228C79.1258 51.228 79.8218 51.528 80.2778 52.164L80.7218 51.84C80.2058 51.072 79.3418 50.688 78.3458 50.688C76.5098 50.688 75.1778 51.996 75.1778 53.868C75.1778 55.728 76.5098 57.048 78.3458 57.048ZM87.3086 57H88.0526L85.0886 53.268L87.7886 50.736H87.0206L83.0126 54.396V48.096H82.4126V57H83.0126V55.14L84.6446 53.652L87.3086 57ZM94.1333 57.048C95.7293 57.048 96.6053 56.352 96.6053 55.332C96.6053 52.944 92.4533 54.276 92.4533 52.392C92.4533 51.72 92.9933 51.216 94.2173 51.216C94.8893 51.216 95.5733 51.396 96.1013 51.78L96.3773 51.3C95.8853 50.928 95.0213 50.688 94.2293 50.688C92.6453 50.688 91.8533 51.456 91.8533 52.404C91.8533 54.864 96.0053 53.52 96.0053 55.344C96.0053 56.052 95.4773 56.52 94.1573 56.52C93.2333 56.52 92.3813 56.172 91.9013 55.764L91.6253 56.244C92.1173 56.7 93.1013 57.048 94.1333 57.048ZM100.392 50.688C99.4198 50.688 98.5078 51.024 97.8838 51.576L98.1838 52.008C98.6998 51.54 99.4798 51.216 100.344 51.216C101.568 51.216 102.204 51.84 102.204 53.004V53.508H100.056C98.3158 53.508 97.7158 54.312 97.7158 55.26C97.7158 56.328 98.5678 57.048 99.9718 57.048C101.064 57.048 101.832 56.604 102.228 55.884V57H102.804V53.028C102.804 51.48 101.94 50.688 100.392 50.688ZM100.056 56.556C98.9518 56.556 98.3158 56.052 98.3158 55.236C98.3158 54.516 98.7718 53.976 100.068 53.976H102.204V55.152C101.844 56.052 101.112 56.556 100.056 56.556ZM108.132 56.184C107.88 56.412 107.532 56.532 107.16 56.532C106.392 56.532 105.996 56.088 105.996 55.284V51.252H107.988V50.736H105.996V49.368H105.396V50.736H104.244V51.252H105.396V55.344C105.396 56.4 105.996 57.048 107.1 57.048C107.568 57.048 108.072 56.904 108.384 56.604L108.132 56.184ZM110.357 49.212C110.633 49.212 110.849 48.996 110.849 48.72C110.849 48.456 110.633 48.24 110.357 48.24C110.081 48.24 109.865 48.468 109.865 48.732C109.865 48.996 110.081 49.212 110.357 49.212ZM110.057 57H110.657V50.736H110.057V57ZM116.246 50.688C115.058 50.688 114.182 51.216 113.762 52.092V50.736H113.186V57H113.786V53.664C113.786 52.176 114.686 51.228 116.162 51.228C117.434 51.228 118.19 51.972 118.19 53.388V57H118.79V53.34C118.79 51.588 117.77 50.688 116.246 50.688ZM127.198 56.184C126.946 56.412 126.598 56.532 126.226 56.532C125.458 56.532 125.062 56.088 125.062 55.284V51.252H127.054V50.736H125.062V49.368H124.462V50.736H123.31V51.252H124.462V55.344C124.462 56.4 125.062 57.048 126.166 57.048C126.634 57.048 127.138 56.904 127.45 56.604L127.198 56.184ZM134.205 53.844C134.205 51.984 132.933 50.688 131.217 50.688C129.501 50.688 128.217 52.008 128.217 53.868C128.217 55.728 129.549 57.048 131.445 57.048C132.393 57.048 133.257 56.7 133.809 56.028L133.461 55.632C132.981 56.22 132.249 56.508 131.457 56.508C129.957 56.508 128.865 55.5 128.805 54.012H134.193C134.193 53.952 134.205 53.892 134.205 53.844ZM131.217 51.216C132.549 51.216 133.533 52.188 133.617 53.544H128.817C128.913 52.176 129.885 51.216 131.217 51.216ZM140.577 57L138.057 53.772L140.409 50.736H139.737L137.721 53.34L135.705 50.736H135.021L137.373 53.772L134.889 57H135.573L137.721 54.204L139.869 57H140.577ZM144.964 56.184C144.712 56.412 144.364 56.532 143.992 56.532C143.224 56.532 142.828 56.088 142.828 55.284V51.252H144.82V50.736H142.828V49.368H142.228V50.736H141.076V51.252H142.228V55.344C142.228 56.4 142.828 57.048 143.932 57.048C144.4 57.048 144.904 56.904 145.216 56.604L144.964 56.184ZM152.419 57.048C154.219 57.048 155.551 55.728 155.551 53.868C155.551 52.008 154.219 50.688 152.419 50.688C150.619 50.688 149.287 52.008 149.287 53.868C149.287 55.728 150.619 57.048 152.419 57.048ZM152.419 56.508C150.979 56.508 149.899 55.44 149.899 53.868C149.899 52.296 150.979 51.228 152.419 51.228C153.859 51.228 154.939 52.296 154.939 53.868C154.939 55.44 153.859 56.508 152.419 56.508ZM160.473 50.688C159.285 50.688 158.409 51.216 157.989 52.092V50.736H157.413V57H158.013V53.664C158.013 52.176 158.913 51.228 160.389 51.228C161.661 51.228 162.417 51.972 162.417 53.388V57H163.017V53.34C163.017 51.588 161.997 50.688 160.473 50.688ZM171.425 56.184C171.173 56.412 170.825 56.532 170.453 56.532C169.685 56.532 169.289 56.088 169.289 55.284V51.252H171.281V50.736H169.289V49.368H168.689V50.736H167.537V51.252H168.689V55.344C168.689 56.4 169.289 57.048 170.393 57.048C170.861 57.048 171.365 56.904 171.677 56.604L171.425 56.184ZM176.41 50.688C175.246 50.688 174.382 51.192 173.95 52.044V48.096H173.35V57H173.95V53.664C173.95 52.176 174.85 51.228 176.326 51.228C177.598 51.228 178.354 51.972 178.354 53.388V57H178.954V53.34C178.954 51.588 177.934 50.688 176.41 50.688ZM186.74 53.844C186.74 51.984 185.468 50.688 183.752 50.688C182.036 50.688 180.752 52.008 180.752 53.868C180.752 55.728 182.084 57.048 183.98 57.048C184.928 57.048 185.792 56.7 186.344 56.028L185.996 55.632C185.516 56.22 184.784 56.508 183.992 56.508C182.492 56.508 181.4 55.5 181.34 54.012H186.728C186.728 53.952 186.74 53.892 186.74 53.844ZM183.752 51.216C185.084 51.216 186.068 52.188 186.152 53.544H181.352C181.448 52.176 182.42 51.216 183.752 51.216ZM194.822 50.688C193.718 50.688 192.782 51.228 192.278 52.164V48.096H191.678V57H192.254V55.524C192.746 56.484 193.694 57.048 194.822 57.048C196.586 57.048 197.918 55.74 197.918 53.868C197.918 51.984 196.586 50.688 194.822 50.688ZM194.786 56.508C193.346 56.508 192.266 55.44 192.266 53.868C192.266 52.296 193.346 51.228 194.786 51.228C196.226 51.228 197.318 52.296 197.318 53.868C197.318 55.44 196.226 56.508 194.786 56.508ZM200.076 49.212C200.352 49.212 200.568 48.996 200.568 48.72C200.568 48.456 200.352 48.24 200.076 48.24C199.8 48.24 199.584 48.468 199.584 48.732C199.584 48.996 199.8 49.212 200.076 49.212ZM199.776 57H200.376V50.736H199.776V57ZM207.801 57H208.545L205.581 53.268L208.281 50.736H207.513L203.505 54.396V48.096H202.905V57H203.505V55.14L205.137 53.652L207.801 57ZM215.006 53.844C215.006 51.984 213.734 50.688 212.018 50.688C210.302 50.688 209.018 52.008 209.018 53.868C209.018 55.728 210.35 57.048 212.246 57.048C213.194 57.048 214.058 56.7 214.61 56.028L214.262 55.632C213.782 56.22 213.05 56.508 212.258 56.508C210.758 56.508 209.666 55.5 209.606 54.012H214.994C214.994 53.952 215.006 53.892 215.006 53.844ZM212.018 51.216C213.35 51.216 214.334 52.188 214.418 53.544H209.618C209.714 52.176 210.686 51.216 212.018 51.216ZM216.743 48.048C216.455 48.048 216.239 48.264 216.239 48.552C216.239 48.804 216.395 48.984 216.635 49.044L216.239 50.736H216.671L217.139 49.104C217.211 48.852 217.247 48.732 217.247 48.552C217.247 48.288 217.043 48.048 216.743 48.048ZM220.614 57.048C222.21 57.048 223.086 56.352 223.086 55.332C223.086 52.944 218.934 54.276 218.934 52.392C218.934 51.72 219.474 51.216 220.698 51.216C221.37 51.216 222.054 51.396 222.582 51.78L222.858 51.3C222.366 50.928 221.502 50.688 220.71 50.688C219.126 50.688 218.334 51.456 218.334 52.404C218.334 54.864 222.486 53.52 222.486 55.344C222.486 56.052 221.958 56.52 220.638 56.52C219.714 56.52 218.862 56.172 218.382 55.764L218.106 56.244C218.598 56.7 219.582 57.048 220.614 57.048ZM229.726 48.564C230.098 48.564 230.446 48.684 230.698 48.912L230.938 48.456C230.638 48.18 230.158 48.048 229.702 48.048C228.586 48.048 227.962 48.732 227.962 49.776V50.736H226.81V51.252H227.962V57H228.562V51.252H230.554V50.736H228.55V49.824C228.55 48.996 228.946 48.564 229.726 48.564ZM234.122 57.048C235.922 57.048 237.254 55.728 237.254 53.868C237.254 52.008 235.922 50.688 234.122 50.688C232.322 50.688 230.99 52.008 230.99 53.868C230.99 55.728 232.322 57.048 234.122 57.048ZM234.122 56.508C232.682 56.508 231.602 55.44 231.602 53.868C231.602 52.296 232.682 51.228 234.122 51.228C235.562 51.228 236.642 52.296 236.642 53.868C236.642 55.44 235.562 56.508 234.122 56.508ZM239.692 52.104V50.736H239.116V57H239.716V53.736C239.716 52.188 240.544 51.264 241.936 51.264C241.984 51.264 242.032 51.276 242.08 51.276V50.688C240.904 50.688 240.076 51.192 239.692 52.104ZM248.629 57H249.373L246.409 53.268L249.109 50.736H248.341L244.333 54.396V48.096H243.733V57H244.333V55.14L245.965 53.652L248.629 57ZM250.002 54.048H253.086V53.508H250.002V54.048ZM260.281 50.736V52.152C259.777 51.216 258.805 50.688 257.653 50.688C255.877 50.688 254.533 51.936 254.533 53.724C254.533 55.512 255.877 56.772 257.653 56.772C258.781 56.772 259.741 56.256 260.257 55.344V56.4C260.257 58.068 259.477 58.836 257.809 58.836C256.801 58.836 255.901 58.5 255.277 57.924L254.953 58.38C255.589 59.016 256.681 59.376 257.821 59.376C259.837 59.376 260.857 58.428 260.857 56.328V50.736H260.281ZM257.701 56.232C256.225 56.232 255.145 55.2 255.145 53.724C255.145 52.248 256.225 51.228 257.701 51.228C259.189 51.228 260.269 52.248 260.269 53.724C260.269 55.2 259.189 56.232 257.701 56.232ZM268.281 50.736V54.072C268.281 55.56 267.405 56.508 265.989 56.508C264.681 56.508 263.925 55.764 263.925 54.348V50.736H263.325V54.396C263.325 56.148 264.345 57.048 265.941 57.048C267.045 57.048 267.897 56.532 268.305 55.656V57H268.881V50.736H268.281ZM273.536 50.688C272.564 50.688 271.652 51.024 271.028 51.576L271.328 52.008C271.844 51.54 272.624 51.216 273.488 51.216C274.712 51.216 275.348 51.84 275.348 53.004V53.508H273.2C271.46 53.508 270.86 54.312 270.86 55.26C270.86 56.328 271.712 57.048 273.116 57.048C274.208 57.048 274.976 56.604 275.372 55.884V57H275.948V53.028C275.948 51.48 275.084 50.688 273.536 50.688ZM273.2 56.556C272.096 56.556 271.46 56.052 271.46 55.236C271.46 54.516 271.916 53.976 273.212 53.976H275.348V55.152C274.988 56.052 274.256 56.556 273.2 56.556ZM278.996 52.104V50.736H278.42V57H279.02V53.736C279.02 52.188 279.848 51.264 281.24 51.264C281.288 51.264 281.336 51.276 281.384 51.276V50.688C280.208 50.688 279.38 51.192 278.996 52.104ZM287.947 48.096V52.188C287.443 51.24 286.507 50.688 285.391 50.688C283.627 50.688 282.295 51.984 282.295 53.868C282.295 55.74 283.627 57.048 285.391 57.048C286.519 57.048 287.467 56.496 287.959 55.524V57H288.547V48.096H287.947ZM285.427 56.508C283.987 56.508 282.907 55.44 282.907 53.868C282.907 52.296 283.987 51.228 285.427 51.228C286.867 51.228 287.947 52.296 287.947 53.868C287.947 55.44 286.867 56.508 285.427 56.508ZM292.661 57.048C294.257 57.048 295.133 56.352 295.133 55.332C295.133 52.944 290.981 54.276 290.981 52.392C290.981 51.72 291.521 51.216 292.745 51.216C293.417 51.216 294.101 51.396 294.629 51.78L294.905 51.3C294.413 50.928 293.549 50.688 292.757 50.688C291.173 50.688 290.381 51.456 290.381 52.404C290.381 54.864 294.533 53.52 294.533 55.344C294.533 56.052 294.005 56.52 292.685 56.52C291.761 56.52 290.909 56.172 290.429 55.764L290.153 56.244C290.645 56.7 291.629 57.048 292.661 57.048ZM302.949 50.688C301.785 50.688 300.921 51.192 300.489 52.044V48.096H299.889V57H300.489V53.664C300.489 52.176 301.389 51.228 302.865 51.228C304.137 51.228 304.893 51.972 304.893 53.388V57H305.493V53.34C305.493 51.588 304.473 50.688 302.949 50.688ZM313.279 53.844C313.279 51.984 312.007 50.688 310.291 50.688C308.575 50.688 307.291 52.008 307.291 53.868C307.291 55.728 308.623 57.048 310.519 57.048C311.467 57.048 312.331 56.7 312.883 56.028L312.535 55.632C312.055 56.22 311.323 56.508 310.531 56.508C309.031 56.508 307.939 55.5 307.879 54.012H313.267C313.267 53.952 313.279 53.892 313.279 53.844ZM310.291 51.216C311.623 51.216 312.607 52.188 312.691 53.544H307.891C307.987 52.176 308.959 51.216 310.291 51.216ZM315.135 57H315.735V48.096H315.135V57ZM321.408 50.688C320.28 50.688 319.332 51.252 318.84 52.212V50.736H318.264V59.328H318.864V55.572C319.368 56.508 320.304 57.048 321.408 57.048C323.172 57.048 324.504 55.752 324.504 53.868C324.504 51.996 323.172 50.688 321.408 50.688ZM321.372 56.508C319.932 56.508 318.852 55.44 318.852 53.868C318.852 52.296 319.932 51.228 321.372 51.228C322.812 51.228 323.904 52.296 323.904 53.868C323.904 55.44 322.812 56.508 321.372 56.508ZM327.946 57.048C329.542 57.048 330.418 56.352 330.418 55.332C330.418 52.944 326.266 54.276 326.266 52.392C326.266 51.72 326.806 51.216 328.03 51.216C328.702 51.216 329.386 51.396 329.914 51.78L330.19 51.3C329.698 50.928 328.834 50.688 328.042 50.688C326.458 50.688 325.666 51.456 325.666 52.404C325.666 54.864 329.818 53.52 329.818 55.344C329.818 56.052 329.29 56.52 327.97 56.52C327.046 56.52 326.194 56.172 325.714 55.764L325.438 56.244C325.93 56.7 326.914 57.048 327.946 57.048ZM338.234 50.688C337.07 50.688 336.206 51.192 335.774 52.044V48.096H335.174V57H335.774V53.664C335.774 52.176 336.674 51.228 338.15 51.228C339.422 51.228 340.178 51.972 340.178 53.388V57H340.778V53.34C340.778 51.588 339.758 50.688 338.234 50.688ZM343.549 49.212C343.825 49.212 344.041 48.996 344.041 48.72C344.041 48.456 343.825 48.24 343.549 48.24C343.273 48.24 343.057 48.468 343.057 48.732C343.057 48.996 343.273 49.212 343.549 49.212ZM343.249 57H343.849V50.736H343.249V57ZM351.441 50.736V52.152C350.937 51.216 349.965 50.688 348.813 50.688C347.037 50.688 345.693 51.936 345.693 53.724C345.693 55.512 347.037 56.772 348.813 56.772C349.941 56.772 350.901 56.256 351.417 55.344V56.4C351.417 58.068 350.637 58.836 348.969 58.836C347.961 58.836 347.061 58.5 346.437 57.924L346.113 58.38C346.749 59.016 347.841 59.376 348.981 59.376C350.997 59.376 352.017 58.428 352.017 56.328V50.736H351.441ZM348.861 56.232C347.385 56.232 346.305 55.2 346.305 53.724C346.305 52.248 347.385 51.228 348.861 51.228C350.349 51.228 351.429 52.248 351.429 53.724C351.429 55.2 350.349 56.232 348.861 56.232ZM357.617 50.688C356.453 50.688 355.589 51.192 355.157 52.044V48.096H354.557V57H355.157V53.664C355.157 52.176 356.057 51.228 357.533 51.228C358.805 51.228 359.561 51.972 359.561 53.388V57H360.161V53.34C360.161 51.588 359.141 50.688 357.617 50.688ZM362.631 57H363.231V48.096H362.631V57ZM366.06 49.212C366.336 49.212 366.552 48.996 366.552 48.72C366.552 48.456 366.336 48.24 366.06 48.24C365.784 48.24 365.568 48.468 365.568 48.732C365.568 48.996 365.784 49.212 366.06 49.212ZM365.76 57H366.36V50.736H365.76V57ZM373.953 50.736V52.152C373.449 51.216 372.477 50.688 371.325 50.688C369.549 50.688 368.205 51.936 368.205 53.724C368.205 55.512 369.549 56.772 371.325 56.772C372.453 56.772 373.413 56.256 373.929 55.344V56.4C373.929 58.068 373.149 58.836 371.481 58.836C370.473 58.836 369.573 58.5 368.949 57.924L368.625 58.38C369.261 59.016 370.353 59.376 371.493 59.376C373.509 59.376 374.529 58.428 374.529 56.328V50.736H373.953ZM371.373 56.232C369.897 56.232 368.817 55.2 368.817 53.724C368.817 52.248 369.897 51.228 371.373 51.228C372.861 51.228 373.941 52.248 373.941 53.724C373.941 55.2 372.861 56.232 371.373 56.232ZM380.129 50.688C378.965 50.688 378.101 51.192 377.669 52.044V48.096H377.069V57H377.669V53.664C377.669 52.176 378.569 51.228 380.045 51.228C381.317 51.228 382.073 51.972 382.073 53.388V57H382.673V53.34C382.673 51.588 381.653 50.688 380.129 50.688ZM387.999 56.184C387.747 56.412 387.399 56.532 387.027 56.532C386.259 56.532 385.863 56.088 385.863 55.284V51.252H387.855V50.736H385.863V49.368H385.263V50.736H384.111V51.252H385.263V55.344C385.263 56.4 385.863 57.048 386.967 57.048C387.435 57.048 387.939 56.904 388.251 56.604L387.999 56.184ZM4.128 80.184C3.876 80.412 3.528 80.532 3.156 80.532C2.388 80.532 1.992 80.088 1.992 79.284V75.252H3.984V74.736H1.992V73.368H1.392V74.736H0.24V75.252H1.392V79.344C1.392 80.4 1.992 81.048 3.096 81.048C3.564 81.048 4.068 80.904 4.38 80.604L4.128 80.184ZM9.11325 74.688C7.94925 74.688 7.08525 75.192 6.65325 76.044V72.096H6.05325V81H6.65325V77.664C6.65325 76.176 7.55325 75.228 9.02925 75.228C10.3013 75.228 11.0573 75.972 11.0573 77.388V81H11.6573V77.34C11.6573 75.588 10.6373 74.688 9.11325 74.688ZM19.4432 77.844C19.4432 75.984 18.1712 74.688 16.4552 74.688C14.7392 74.688 13.4552 76.008 13.4552 77.868C13.4552 79.728 14.7872 81.048 16.6832 81.048C17.6312 81.048 18.4952 80.7 19.0472 80.028L18.6992 79.632C18.2192 80.22 17.4872 80.508 16.6952 80.508C15.1952 80.508 14.1032 79.5 14.0432 78.012H19.4312C19.4312 77.952 19.4432 77.892 19.4432 77.844ZM16.4552 75.216C17.7872 75.216 18.7712 76.188 18.8552 77.544H14.0552C14.1512 76.176 15.1232 75.216 16.4552 75.216ZM26.8654 81.048C27.8614 81.048 28.7254 80.652 29.2414 79.896L28.7974 79.572C28.3414 80.208 27.6454 80.508 26.8654 80.508C25.3894 80.508 24.3094 79.452 24.3094 77.868C24.3094 76.284 25.3894 75.228 26.8654 75.228C27.6454 75.228 28.3414 75.528 28.7974 76.164L29.2414 75.84C28.7254 75.072 27.8614 74.688 26.8654 74.688C25.0294 74.688 23.6974 75.996 23.6974 77.868C23.6974 79.728 25.0294 81.048 26.8654 81.048ZM33.3802 81.048C35.1802 81.048 36.5122 79.728 36.5122 77.868C36.5122 76.008 35.1802 74.688 33.3802 74.688C31.5802 74.688 30.2482 76.008 30.2482 77.868C30.2482 79.728 31.5802 81.048 33.3802 81.048ZM33.3802 80.508C31.9402 80.508 30.8602 79.44 30.8602 77.868C30.8602 76.296 31.9402 75.228 33.3802 75.228C34.8202 75.228 35.9002 76.296 35.9002 77.868C35.9002 79.44 34.8202 80.508 33.3802 80.508ZM46.1736 74.688C44.9616 74.688 44.0496 75.288 43.6416 76.2C43.3056 75.204 42.4776 74.688 41.3496 74.688C40.2096 74.688 39.3576 75.204 38.9496 76.08V74.736H38.3736V81H38.9736V77.664C38.9736 76.176 39.8496 75.228 41.2656 75.228C42.4896 75.228 43.2216 75.972 43.2216 77.388V81H43.8216V77.664C43.8216 76.176 44.6976 75.228 46.1136 75.228C47.3376 75.228 48.0696 75.972 48.0696 77.388V81H48.6696V77.34C48.6696 75.588 47.6856 74.688 46.1736 74.688ZM54.291 74.688C53.163 74.688 52.215 75.252 51.723 76.212V74.736H51.147V83.328H51.747V79.572C52.251 80.508 53.187 81.048 54.291 81.048C56.055 81.048 57.387 79.752 57.387 77.868C57.387 75.996 56.055 74.688 54.291 74.688ZM54.255 80.508C52.815 80.508 51.735 79.44 51.735 77.868C51.735 76.296 52.815 75.228 54.255 75.228C55.695 75.228 56.787 76.296 56.787 77.868C56.787 79.44 55.695 80.508 54.255 80.508ZM61.3332 74.688C60.3612 74.688 59.4492 75.024 58.8252 75.576L59.1252 76.008C59.6412 75.54 60.4212 75.216 61.2852 75.216C62.5092 75.216 63.1452 75.84 63.1452 77.004V77.508H60.9972C59.2572 77.508 58.6572 78.312 58.6572 79.26C58.6572 80.328 59.5092 81.048 60.9132 81.048C62.0052 81.048 62.7732 80.604 63.1692 79.884V81H63.7452V77.028C63.7452 75.48 62.8812 74.688 61.3332 74.688ZM60.9972 80.556C59.8932 80.556 59.2572 80.052 59.2572 79.236C59.2572 78.516 59.7132 77.976 61.0092 77.976H63.1452V79.152C62.7852 80.052 62.0532 80.556 60.9972 80.556ZM69.2773 74.688C68.0893 74.688 67.2133 75.216 66.7933 76.092V74.736H66.2173V81H66.8173V77.664C66.8173 76.176 67.7173 75.228 69.1933 75.228C70.4653 75.228 71.2213 75.972 71.2213 77.388V81H71.8213V77.34C71.8213 75.588 70.8013 74.688 69.2773 74.688ZM78.5903 74.736L76.0823 80.34L73.5743 74.736H72.9383L75.7583 80.976L75.4223 81.732C75.0383 82.584 74.6183 82.848 74.0423 82.848C73.5743 82.848 73.2023 82.692 72.8783 82.356L72.5783 82.812C72.9383 83.184 73.4663 83.376 74.0303 83.376C74.8583 83.376 75.4823 83.004 75.9863 81.852L79.2023 74.736H78.5903ZM80.6648 72.048C80.3768 72.048 80.1608 72.264 80.1608 72.552C80.1608 72.804 80.3168 72.984 80.5568 73.044L80.1608 74.736H80.5928L81.0608 73.104C81.1328 72.852 81.1688 72.732 81.1688 72.552C81.1688 72.288 80.9648 72.048 80.6648 72.048ZM84.5357 81.048C86.1317 81.048 87.0077 80.352 87.0077 79.332C87.0077 76.944 82.8557 78.276 82.8557 76.392C82.8557 75.72 83.3957 75.216 84.6197 75.216C85.2917 75.216 85.9757 75.396 86.5037 75.78L86.7797 75.3C86.2877 74.928 85.4237 74.688 84.6317 74.688C83.0477 74.688 82.2557 75.456 82.2557 76.404C82.2557 78.864 86.4077 77.52 86.4077 79.344C86.4077 80.052 85.8797 80.52 84.5597 80.52C83.6357 80.52 82.7837 80.172 82.3037 79.764L82.0277 80.244C82.5197 80.7 83.5037 81.048 84.5357 81.048ZM94.9082 74.688C93.8042 74.688 92.8682 75.228 92.3642 76.164V72.096H91.7642V81H92.3402V79.524C92.8322 80.484 93.7802 81.048 94.9082 81.048C96.6722 81.048 98.0042 79.74 98.0042 77.868C98.0042 75.984 96.6722 74.688 94.9082 74.688ZM94.8722 80.508C93.4322 80.508 92.3522 79.44 92.3522 77.868C92.3522 76.296 93.4322 75.228 94.8722 75.228C96.3122 75.228 97.4042 76.296 97.4042 77.868C97.4042 79.44 96.3122 80.508 94.8722 80.508ZM100.438 76.104V74.736H99.8618V81H100.462V77.736C100.462 76.188 101.29 75.264 102.682 75.264C102.73 75.264 102.778 75.276 102.826 75.276V74.688C101.65 74.688 100.822 75.192 100.438 76.104ZM106.591 74.688C105.619 74.688 104.707 75.024 104.083 75.576L104.383 76.008C104.899 75.54 105.679 75.216 106.543 75.216C107.767 75.216 108.403 75.84 108.403 77.004V77.508H106.255C104.515 77.508 103.915 78.312 103.915 79.26C103.915 80.328 104.767 81.048 106.171 81.048C107.263 81.048 108.031 80.604 108.427 79.884V81H109.003V77.028C109.003 75.48 108.139 74.688 106.591 74.688ZM106.255 80.556C105.151 80.556 104.515 80.052 104.515 79.236C104.515 78.516 104.971 77.976 106.267 77.976H108.403V79.152C108.043 80.052 107.311 80.556 106.255 80.556ZM114.535 74.688C113.347 74.688 112.471 75.216 112.051 76.092V74.736H111.475V81H112.075V77.664C112.075 76.176 112.975 75.228 114.451 75.228C115.723 75.228 116.479 75.972 116.479 77.388V81H117.079V77.34C117.079 75.588 116.059 74.688 114.535 74.688ZM124.529 72.096V76.188C124.025 75.24 123.089 74.688 121.973 74.688C120.209 74.688 118.877 75.984 118.877 77.868C118.877 79.74 120.209 81.048 121.973 81.048C123.101 81.048 124.049 80.496 124.541 79.524V81H125.129V72.096H124.529ZM122.009 80.508C120.569 80.508 119.489 79.44 119.489 77.868C119.489 76.296 120.569 75.228 122.009 75.228C123.449 75.228 124.529 76.296 124.529 77.868C124.529 79.44 123.449 80.508 122.009 80.508ZM127.959 73.212C128.235 73.212 128.451 72.996 128.451 72.72C128.451 72.456 128.235 72.24 127.959 72.24C127.683 72.24 127.467 72.468 127.467 72.732C127.467 72.996 127.683 73.212 127.959 73.212ZM127.659 81H128.259V74.736H127.659V81ZM133.848 74.688C132.66 74.688 131.784 75.216 131.364 76.092V74.736H130.788V81H131.388V77.664C131.388 76.176 132.288 75.228 133.764 75.228C135.036 75.228 135.792 75.972 135.792 77.388V81H136.392V77.34C136.392 75.588 135.372 74.688 133.848 74.688ZM143.938 74.736V76.152C143.434 75.216 142.462 74.688 141.31 74.688C139.534 74.688 138.19 75.936 138.19 77.724C138.19 79.512 139.534 80.772 141.31 80.772C142.438 80.772 143.398 80.256 143.914 79.344V80.4C143.914 82.068 143.134 82.836 141.466 82.836C140.458 82.836 139.558 82.5 138.934 81.924L138.61 82.38C139.246 83.016 140.338 83.376 141.478 83.376C143.494 83.376 144.514 82.428 144.514 80.328V74.736H143.938ZM141.358 80.232C139.882 80.232 138.802 79.2 138.802 77.724C138.802 76.248 139.882 75.228 141.358 75.228C142.846 75.228 143.926 76.248 143.926 77.724C143.926 79.2 142.846 80.232 141.358 80.232ZM158.535 74.736L156.423 80.316L154.299 74.736H153.783L151.647 80.328L149.559 74.736H148.983L151.359 81H151.911L154.035 75.564L156.147 81H156.711L159.087 74.736H158.535ZM160.783 73.212C161.059 73.212 161.275 72.996 161.275 72.72C161.275 72.456 161.059 72.24 160.783 72.24C160.507 72.24 160.291 72.468 160.291 72.732C160.291 72.996 160.507 73.212 160.783 73.212ZM160.483 81H161.083V74.736H160.483V81ZM166.468 80.184C166.216 80.412 165.868 80.532 165.496 80.532C164.728 80.532 164.332 80.088 164.332 79.284V75.252H166.324V74.736H164.332V73.368H163.732V74.736H162.58V75.252H163.732V79.344C163.732 80.4 164.332 81.048 165.436 81.048C165.904 81.048 166.408 80.904 166.72 80.604L166.468 80.184ZM171.453 74.688C170.289 74.688 169.425 75.192 168.993 76.044V72.096H168.393V81H168.993V77.664C168.993 76.176 169.893 75.228 171.369 75.228C172.641 75.228 173.397 75.972 173.397 77.388V81H173.997V77.34C173.997 75.588 172.977 74.688 171.453 74.688ZM178.927 81.048C180.727 81.048 182.059 79.728 182.059 77.868C182.059 76.008 180.727 74.688 178.927 74.688C177.127 74.688 175.795 76.008 175.795 77.868C175.795 79.728 177.127 81.048 178.927 81.048ZM178.927 80.508C177.487 80.508 176.407 79.44 176.407 77.868C176.407 76.296 177.487 75.228 178.927 75.228C180.367 75.228 181.447 76.296 181.447 77.868C181.447 79.44 180.367 80.508 178.927 80.508ZM188.804 74.736V78.072C188.804 79.56 187.928 80.508 186.512 80.508C185.204 80.508 184.448 79.764 184.448 78.348V74.736H183.848V78.396C183.848 80.148 184.868 81.048 186.464 81.048C187.568 81.048 188.42 80.532 188.828 79.656V81H189.404V74.736H188.804ZM194.804 80.184C194.552 80.412 194.204 80.532 193.832 80.532C193.064 80.532 192.668 80.088 192.668 79.284V75.252H194.66V74.736H192.668V73.368H192.068V74.736H190.916V75.252H192.068V79.344C192.068 80.4 192.668 81.048 193.772 81.048C194.24 81.048 194.744 80.904 195.056 80.604L194.804 80.184ZM202.955 74.688C201.851 74.688 200.915 75.228 200.411 76.164V72.096H199.811V81H200.387V79.524C200.879 80.484 201.827 81.048 202.955 81.048C204.719 81.048 206.051 79.74 206.051 77.868C206.051 75.984 204.719 74.688 202.955 74.688ZM202.919 80.508C201.479 80.508 200.399 79.44 200.399 77.868C200.399 76.296 201.479 75.228 202.919 75.228C204.359 75.228 205.451 76.296 205.451 77.868C205.451 79.44 204.359 80.508 202.919 80.508ZM213.213 77.844C213.213 75.984 211.941 74.688 210.225 74.688C208.509 74.688 207.225 76.008 207.225 77.868C207.225 79.728 208.557 81.048 210.453 81.048C211.401 81.048 212.265 80.7 212.817 80.028L212.469 79.632C211.989 80.22 211.257 80.508 210.465 80.508C208.965 80.508 207.873 79.5 207.813 78.012H213.201C213.201 77.952 213.213 77.892 213.213 77.844ZM210.225 75.216C211.557 75.216 212.541 76.188 212.625 77.544H207.825C207.921 76.176 208.893 75.216 210.225 75.216ZM215.369 73.212C215.645 73.212 215.861 72.996 215.861 72.72C215.861 72.456 215.645 72.24 215.369 72.24C215.093 72.24 214.877 72.468 214.877 72.732C214.877 72.996 215.093 73.212 215.369 73.212ZM215.069 81H215.669V74.736H215.069V81ZM221.258 74.688C220.07 74.688 219.194 75.216 218.774 76.092V74.736H218.198V81H218.798V77.664C218.798 76.176 219.698 75.228 221.174 75.228C222.446 75.228 223.202 75.972 223.202 77.388V81H223.802V77.34C223.802 75.588 222.782 74.688 221.258 74.688ZM231.348 74.736V76.152C230.844 75.216 229.872 74.688 228.72 74.688C226.944 74.688 225.6 75.936 225.6 77.724C225.6 79.512 226.944 80.772 228.72 80.772C229.848 80.772 230.808 80.256 231.324 79.344V80.4C231.324 82.068 230.544 82.836 228.876 82.836C227.868 82.836 226.968 82.5 226.344 81.924L226.02 82.38C226.656 83.016 227.748 83.376 228.888 83.376C230.904 83.376 231.924 82.428 231.924 80.328V74.736H231.348ZM228.768 80.232C227.292 80.232 226.212 79.2 226.212 77.724C226.212 76.248 227.292 75.228 228.768 75.228C230.256 75.228 231.336 76.248 231.336 77.724C231.336 79.2 230.256 80.232 228.768 80.232ZM240.401 80.184C240.149 80.412 239.801 80.532 239.429 80.532C238.661 80.532 238.265 80.088 238.265 79.284V75.252H240.257V74.736H238.265V73.368H237.665V74.736H236.513V75.252H237.665V79.344C237.665 80.4 238.265 81.048 239.369 81.048C239.837 81.048 240.341 80.904 240.653 80.604L240.401 80.184ZM244.552 81.048C246.352 81.048 247.684 79.728 247.684 77.868C247.684 76.008 246.352 74.688 244.552 74.688C242.752 74.688 241.42 76.008 241.42 77.868C241.42 79.728 242.752 81.048 244.552 81.048ZM244.552 80.508C243.112 80.508 242.032 79.44 242.032 77.868C242.032 76.296 243.112 75.228 244.552 75.228C245.992 75.228 247.072 76.296 247.072 77.868C247.072 79.44 245.992 80.508 244.552 80.508ZM251.993 81.048C253.793 81.048 255.125 79.728 255.125 77.868C255.125 76.008 253.793 74.688 251.993 74.688C250.193 74.688 248.861 76.008 248.861 77.868C248.861 79.728 250.193 81.048 251.993 81.048ZM251.993 80.508C250.553 80.508 249.473 79.44 249.473 77.868C249.473 76.296 250.553 75.228 251.993 75.228C253.433 75.228 254.513 76.296 254.513 77.868C254.513 79.44 253.433 80.508 251.993 80.508ZM265.037 72.096V76.188C264.533 75.24 263.597 74.688 262.481 74.688C260.717 74.688 259.385 75.984 259.385 77.868C259.385 79.74 260.717 81.048 262.481 81.048C263.609 81.048 264.557 80.496 265.049 79.524V81H265.637V72.096H265.037ZM262.517 80.508C261.077 80.508 259.997 79.44 259.997 77.868C259.997 76.296 261.077 75.228 262.517 75.228C263.957 75.228 265.037 76.296 265.037 77.868C265.037 79.44 263.957 80.508 262.517 80.508ZM268.467 73.212C268.743 73.212 268.959 72.996 268.959 72.72C268.959 72.456 268.743 72.24 268.467 72.24C268.191 72.24 267.975 72.468 267.975 72.732C267.975 72.996 268.191 73.212 268.467 73.212ZM268.167 81H268.767V74.736H268.167V81ZM271.871 76.104V74.736H271.295V81H271.895V77.736C271.895 76.188 272.723 75.264 274.115 75.264C274.163 75.264 274.211 75.276 274.259 75.276V74.688C273.083 74.688 272.255 75.192 271.871 76.104ZM281.158 77.844C281.158 75.984 279.886 74.688 278.17 74.688C276.454 74.688 275.17 76.008 275.17 77.868C275.17 79.728 276.502 81.048 278.398 81.048C279.346 81.048 280.21 80.7 280.762 80.028L280.414 79.632C279.934 80.22 279.202 80.508 278.41 80.508C276.91 80.508 275.818 79.5 275.758 78.012H281.146C281.146 77.952 281.158 77.892 281.158 77.844ZM278.17 75.216C279.502 75.216 280.486 76.188 280.57 77.544H275.77C275.866 76.176 276.838 75.216 278.17 75.216ZM285.498 81.048C286.494 81.048 287.358 80.652 287.874 79.896L287.43 79.572C286.974 80.208 286.278 80.508 285.498 80.508C284.022 80.508 282.942 79.452 282.942 77.868C282.942 76.284 284.022 75.228 285.498 75.228C286.278 75.228 286.974 75.528 287.43 76.164L287.874 75.84C287.358 75.072 286.494 74.688 285.498 74.688C283.662 74.688 282.33 75.996 282.33 77.868C282.33 79.728 283.662 81.048 285.498 81.048ZM292.597 80.184C292.345 80.412 291.997 80.532 291.625 80.532C290.857 80.532 290.461 80.088 290.461 79.284V75.252H292.453V74.736H290.461V73.368H289.861V74.736H288.709V75.252H289.861V79.344C289.861 80.4 290.461 81.048 291.565 81.048C292.033 81.048 292.537 80.904 292.849 80.604L292.597 80.184ZM300.052 81.048C301.852 81.048 303.184 79.728 303.184 77.868C303.184 76.008 301.852 74.688 300.052 74.688C298.252 74.688 296.92 76.008 296.92 77.868C296.92 79.728 298.252 81.048 300.052 81.048ZM300.052 80.508C298.612 80.508 297.532 79.44 297.532 77.868C297.532 76.296 298.612 75.228 300.052 75.228C301.492 75.228 302.572 76.296 302.572 77.868C302.572 79.44 301.492 80.508 300.052 80.508ZM305.621 76.104V74.736H305.045V81H305.645V77.736C305.645 76.188 306.473 75.264 307.865 75.264C307.913 75.264 307.961 75.276 308.009 75.276V74.688C306.833 74.688 306.005 75.192 305.621 76.104ZM315.298 81.048C317.098 81.048 318.43 79.728 318.43 77.868C318.43 76.008 317.098 74.688 315.298 74.688C313.498 74.688 312.166 76.008 312.166 77.868C312.166 79.728 313.498 81.048 315.298 81.048ZM315.298 80.508C313.858 80.508 312.778 79.44 312.778 77.868C312.778 76.296 313.858 75.228 315.298 75.228C316.738 75.228 317.818 76.296 317.818 77.868C317.818 79.44 316.738 80.508 315.298 80.508ZM323.436 74.688C322.332 74.688 321.396 75.228 320.892 76.164V72.096H320.292V81H320.868V79.524C321.36 80.484 322.308 81.048 323.436 81.048C325.2 81.048 326.532 79.74 326.532 77.868C326.532 75.984 325.2 74.688 323.436 74.688ZM323.4 80.508C321.96 80.508 320.88 79.44 320.88 77.868C320.88 76.296 321.96 75.228 323.4 75.228C324.84 75.228 325.932 76.296 325.932 77.868C325.932 79.44 324.84 80.508 323.4 80.508ZM332.629 74.736L330.109 80.34L327.613 74.736H326.977L329.797 81H330.409L333.241 74.736H332.629ZM334.853 73.212C335.129 73.212 335.345 72.996 335.345 72.72C335.345 72.456 335.129 72.24 334.853 72.24C334.577 72.24 334.361 72.468 334.361 72.732C334.361 72.996 334.577 73.212 334.853 73.212ZM334.553 81H335.153V74.736H334.553V81ZM340.13 81.048C341.93 81.048 343.262 79.728 343.262 77.868C343.262 76.008 341.93 74.688 340.13 74.688C338.33 74.688 336.998 76.008 336.998 77.868C336.998 79.728 338.33 81.048 340.13 81.048ZM340.13 80.508C338.69 80.508 337.61 79.44 337.61 77.868C337.61 76.296 338.69 75.228 340.13 75.228C341.57 75.228 342.65 76.296 342.65 77.868C342.65 79.44 341.57 80.508 340.13 80.508ZM350.008 74.736V78.072C350.008 79.56 349.132 80.508 347.716 80.508C346.408 80.508 345.652 79.764 345.652 78.348V74.736H345.052V78.396C345.052 80.148 346.072 81.048 347.668 81.048C348.772 81.048 349.624 80.532 350.032 79.656V81H350.608V74.736H350.008ZM354.735 81.048C356.331 81.048 357.207 80.352 357.207 79.332C357.207 76.944 353.055 78.276 353.055 76.392C353.055 75.72 353.595 75.216 354.819 75.216C355.491 75.216 356.175 75.396 356.703 75.78L356.979 75.3C356.487 74.928 355.623 74.688 354.831 74.688C353.247 74.688 352.455 75.456 352.455 76.404C352.455 78.864 356.607 77.52 356.607 79.344C356.607 80.052 356.079 80.52 354.759 80.52C353.835 80.52 352.983 80.172 352.503 79.764L352.227 80.244C352.719 80.7 353.703 81.048 354.735 81.048ZM358.809 81.048C359.085 81.048 359.313 80.82 359.313 80.532C359.313 80.244 359.085 80.028 358.809 80.028C358.533 80.028 358.305 80.244 358.305 80.532C358.305 80.82 358.533 81.048 358.809 81.048Z" fill="white"/>
</svg>
